<svg version="1.2" xmlns="http://www.w3.org/2000/svg" viewBox="0 0 726 405" width="726" height="405">
	<title>CSVbox Privacy Modes-svg</title>
	<defs>
		<clipPath clipPathUnits="userSpaceOnUse" id="cp1">
			<path d="m-151-583h1065v1623.57h-1065z"/>
		</clipPath>
	</defs>
	<style>
		.s0 { fill: none } 
		.s1 { fill: #fff2cc } 
		.s2 { fill: none;stroke: #f1c232;stroke-linejoin: round;stroke-width: 3 } 
		.s3 { fill: #ffffff } 
		.s4 { fill: #000000 } 
		.s5 { fill: #d9ead3 } 
		.s6 { fill: none;stroke: #6aa84f;stroke-linejoin: round;stroke-width: 3 } 
		.s7 { fill: #cfe2f3 } 
		.s8 { fill: none;stroke: #007bff;stroke-linejoin: round;stroke-width: 3 } 
		.s9 { fill: none;stroke: #000000;stroke-linejoin: round;stroke-width: 3 } 
		.s10 { fill: #000000;stroke: #000000;stroke-width: 3 } 
		.s11 { fill: none;stroke: #000000;stroke-linejoin: round;stroke-width: 3;stroke-dasharray: 24,9 } 
		.s12 { fill: #ff0000 } 
		.s13 { fill: none;stroke: #000000;stroke-linejoin: round;stroke-dasharray: 8,3 } 
		.s14 { fill: #000000;stroke: #000000 } 
	</style>
	<g id="Clip-Path" clip-path="url(#cp1)">
		<g id="Layer">
			<path id="Layer" class="s0" d="m-151-583h1065v1623.6h-1065z"/>
			<path id="Layer" fill-rule="evenodd" class="s1" d="m14.5-472.1h181.9v173h-181.9z"/>
			<path id="Layer" class="s2" d="m14.5-472.1h181.9v173h-181.9z"/>
			<path id="Layer" fill-rule="evenodd" class="s3" d="m35.4-420.1h9.9 110.8v49.6q0 0 0 0c0 0 4.5-0.4 9.1-0.4v-7c0 0 5.2-0.3 10.4-0.3v-56.3h-120.9v7.1h-9.4v7.3h110.8v56.1c-60.4 0-60.4 21.6-120.7 10.8z"/>
			<path id="Layer" class="s0" d="m35.4-420.1h120.7v56.1c-60.4 0-60.4 21.6-120.7 10.8zm9.9 0v-7.3h119.9v56.5c-4.6 0-9.1 0.4-9.1 0.4m-101.4-56.9v-7.1h120.9v56.4c-5.2 0-10.4 0.2-10.4 0.2"/>
			<path id="Layer" class="s0" d="m35.4-353.2c60.3 10.8 60.3-10.8 120.7-10.8v-6.5c0 0 4.5-0.4 9.1-0.4v-7c0 0 5.2-0.3 10.4-0.3v-56.3h-120.9v7.1h-9.4v7.3h-9.9z"/>
			<path id="Layer" class="s2" d="m35.4-420.1h120.7v56.1c-60.4 0-60.4 21.6-120.7 10.8zm9.9 0v-7.3h119.9v56.5c-4.6 0-9.1 0.4-9.1 0.4m-101.4-56.9v-7.1h120.9v56.4c-5.2 0-10.4 0.2-10.4 0.2"/>
			<path id="Layer" fill-rule="evenodd" class="s4" d="m55.3-384.4l1.8 0.4q-0.6 2.2-2 3.4-1.4 1.1-3.5 1.1-2.2 0-3.5-0.9-1.4-0.9-2.1-2.5-0.7-1.7-0.7-3.6 0-2.1 0.8-3.6 0.8-1.6 2.3-2.4 1.4-0.8 3.2-0.8 2 0 3.4 1 1.3 1 1.9 2.9l-1.8 0.4q-0.4-1.5-1.3-2.1-0.9-0.7-2.2-0.7-1.6 0-2.6 0.7-1 0.8-1.5 2-0.4 1.2-0.4 2.6 0 1.7 0.5 2.9 0.5 1.3 1.6 2 1 0.6 2.2 0.6 1.5 0 2.6-0.9 1-0.8 1.3-2.5zm3.4 0.4l1.7-0.2q0.1 1 0.5 1.7 0.4 0.6 1.3 1 1 0.4 2.1 0.4 1 0 1.8-0.3 0.8-0.3 1.1-0.8 0.4-0.5 0.4-1.2 0-0.6-0.4-1.1-0.3-0.4-1.1-0.8-0.6-0.2-2.4-0.6-1.9-0.5-2.6-0.8-1-0.5-1.4-1.3-0.5-0.7-0.5-1.6 0-1 0.6-1.9 0.6-0.9 1.6-1.4 1.2-0.4 2.5-0.4 1.5 0 2.6 0.5 1.1 0.4 1.8 1.4 0.6 0.9 0.6 2.1l-1.7 0.1q-0.1-1.3-0.9-1.9-0.8-0.7-2.3-0.7-1.6 0-2.4 0.6-0.7 0.6-0.7 1.4 0 0.8 0.5 1.2 0.5 0.5 2.7 1 2.1 0.5 2.9 0.8 1.2 0.6 1.8 1.4 0.5 0.8 0.5 1.9 0 1.1-0.6 2-0.6 0.9-1.7 1.5-1.2 0.5-2.6 0.5-1.8 0-3.1-0.5-1.2-0.6-1.9-1.6-0.7-1.1-0.7-2.4zm16.8 4.3l-5.1-13.4h1.9l3.5 9.7q0.4 1.2 0.7 2.2 0.3-1.1 0.7-2.2l3.6-9.7h1.8l-5.2 13.4zm7.1 0v-1.9h1.9v1.9q0 1-0.4 1.6-0.4 0.7-1.2 1l-0.4-0.7q0.5-0.2 0.7-0.7 0.3-0.4 0.3-1.2zm10.2 0v-13.4h9.7v1.6h-7.9v4.1h7.4v1.5h-7.4v4.6h8.2v1.6zm11.1 0l3.5-5.1-3.2-4.6h2l1.5 2.3q0.4 0.6 0.7 1 0.4-0.6 0.7-1l1.6-2.3h2l-3.4 4.5 3.6 5.2h-2l-2-3-0.5-0.9-2.5 3.9zm16.7-3.6l1.6 0.2q-0.2 1.7-1.3 2.6-1.1 1-2.7 1-2 0-3.2-1.3-1.2-1.3-1.2-3.7 0-1.6 0.5-2.8 0.5-1.2 1.6-1.7 1.1-0.6 2.3-0.6 1.6 0 2.6 0.8 1 0.8 1.3 2.2l-1.6 0.3q-0.3-1-0.8-1.5-0.6-0.5-1.4-0.5-1.3 0-2 0.9-0.8 0.9-0.8 2.8 0 2 0.7 2.9 0.8 0.8 2 0.8 0.9 0 1.6-0.6 0.6-0.6 0.8-1.8zm9.7 0.4l1.6 0.3q-0.4 1.4-1.4 2.3-1.1 0.8-2.8 0.8-2.1 0-3.4-1.3-1.2-1.3-1.2-3.7 0-2.4 1.2-3.8 1.3-1.3 3.3-1.3 1.9 0 3.2 1.3 1.2 1.3 1.2 3.7 0 0.2 0 0.4h-7.2q0.1 1.6 0.9 2.5 0.8 0.8 2 0.8 0.9 0 1.5-0.4 0.7-0.5 1.1-1.6zm-5.4-2.6h5.4q-0.1-1.2-0.7-1.8-0.7-1-2-1-1.1 0-1.9 0.8-0.8 0.7-0.8 2zm9.1 5.8v-13.4h1.6v13.4z"/>
			<path id="Layer" class="s0" d="m14.5-513.7h181.9v42h-181.9z"/>
			<path id="Layer" fill-rule="evenodd" class="s4" d="m49.5-491.7l2.7 0.8q-0.6 2.2-2 3.3-1.4 1.1-3.6 1.1-2.6 0-4.4-1.9-1.7-1.8-1.7-4.9 0-3.4 1.7-5.2 1.8-1.9 4.6-1.9 2.4 0 3.9 1.5 1 0.8 1.4 2.4l-2.6 0.7q-0.3-1.1-1-1.7-0.8-0.6-1.9-0.6-1.4 0-2.4 1.1-0.9 1.1-0.9 3.5 0 2.5 0.9 3.6 0.9 1 2.4 1 1.1 0 1.8-0.6 0.8-0.7 1.1-2.2zm5 4.9v-13.3h2.5v13.3zm5.2-11v-2.3h2.6v2.3zm0 11v-9.7h2.5v9.7zm10.8-3.1l2.6 0.5q-0.5 1.4-1.6 2.1-1.1 0.7-2.7 0.7-2.5 0-3.7-1.6-0.9-1.3-0.9-3.3 0-2.5 1.2-3.8 1.3-1.4 3.2-1.4 2.2 0 3.4 1.4 1.3 1.5 1.2 4.4h-6.4q0 1.2 0.6 1.8 0.6 0.6 1.5 0.6 0.6 0 1-0.3 0.4-0.3 0.6-1.1zm0.2-2.6q-0.1-1.1-0.6-1.6-0.6-0.6-1.3-0.6-0.9 0-1.4 0.6-0.6 0.6-0.6 1.6zm13.5 5.7h-2.6v-4.9q0-1.6-0.2-2-0.1-0.5-0.5-0.8-0.4-0.2-0.9-0.2-0.7 0-1.2 0.4-0.5 0.3-0.7 0.9-0.2 0.6-0.2 2.2v4.4h-2.6v-9.7h2.4v1.5q1.3-1.7 3.2-1.7 0.8 0 1.6 0.3 0.7 0.3 1 0.8 0.4 0.5 0.5 1.1 0.2 0.6 0.2 1.7zm7-9.7v2.1h-1.8v3.9q0 1.2 0.1 1.4 0 0.1 0.2 0.3 0.2 0.1 0.4 0.1 0.4 0 1.1-0.3l0.2 2q-0.9 0.4-2 0.4-0.7 0-1.3-0.2-0.5-0.2-0.8-0.6-0.2-0.4-0.3-1-0.1-0.5-0.1-1.8v-4.2h-1.2v-2.1h1.2v-1.9l2.5-1.5v3.4zm7-3.7h5.4q1.6 0 2.3 0.2 0.8 0.1 1.4 0.5 0.6 0.5 1 1.2 0.4 0.6 0.4 1.5 0 0.9-0.5 1.7-0.5 0.8-1.3 1.2 1.2 0.4 1.8 1.2 0.7 0.9 0.7 2 0 0.9-0.4 1.8-0.4 0.9-1.2 1.4-0.7 0.5-1.8 0.6-0.7 0.1-3.2 0.1h-4.6zm2.7 2.2v3.1h1.8q1.6 0 1.9 0 0.7-0.1 1.1-0.5 0.4-0.4 0.4-1 0-0.7-0.3-1-0.3-0.4-1-0.5-0.4-0.1-2.3-0.1zm0 5.3v3.6h2.5q1.4 0 1.8-0.1 0.6-0.1 1-0.5 0.4-0.4 0.4-1.1 0-0.6-0.3-1.1-0.3-0.4-0.9-0.6-0.5-0.2-2.4-0.2zm13.2 5.9h-2.5v-9.7h2.4v1.4q0.6-1 1.1-1.3 0.4-0.3 1.1-0.3 0.8 0 1.6 0.5l-0.7 2.2q-0.7-0.4-1.3-0.4-0.5 0-0.9 0.3-0.3 0.3-0.6 1-0.2 0.8-0.2 3.3zm4.3-5q0-1.3 0.6-2.5 0.6-1.2 1.8-1.8 1.1-0.6 2.5-0.6 2.2 0 3.6 1.4 1.4 1.4 1.4 3.6 0 2.2-1.4 3.7-1.4 1.4-3.5 1.4-1.4 0-2.6-0.6-1.2-0.6-1.8-1.8-0.6-1.1-0.6-2.8zm2.6 0.1q0 1.5 0.7 2.3 0.6 0.7 1.6 0.7 1 0 1.7-0.7 0.7-0.8 0.7-2.3 0-1.4-0.7-2.2-0.7-0.7-1.7-0.7-1 0-1.6 0.7-0.7 0.8-0.7 2.2zm11.1 4.9l-3-9.7h2.5l1.8 6.3 1.7-6.3h2.4l1.6 6.3 1.9-6.3h2.5l-3.1 9.7h-2.5l-1.6-6.2-1.7 6.2zm11.8-2.8l2.6-0.4q0.2 0.8 0.7 1.2 0.5 0.4 1.4 0.4 1 0 1.5-0.4 0.3-0.3 0.3-0.7 0-0.3-0.2-0.5-0.2-0.2-0.8-0.3-3.1-0.7-4-1.3-1.1-0.8-1.1-2.1 0-1.3 1-2.2 1-0.8 3.1-0.8 1.9 0 2.9 0.6 1 0.7 1.3 1.9l-2.4 0.5q-0.1-0.6-0.6-0.9-0.4-0.3-1.2-0.3-1 0-1.4 0.3-0.3 0.2-0.3 0.5 0 0.3 0.2 0.5 0.4 0.2 2.4 0.7 2.1 0.5 2.9 1.2 0.8 0.6 0.8 1.8 0 1.4-1.1 2.3-1.1 1-3.3 1-2 0-3.2-0.8-1.1-0.8-1.5-2.2zm16.9-0.3l2.6 0.4q-0.5 1.4-1.6 2.2-1 0.7-2.6 0.7-2.6 0-3.8-1.7-0.9-1.3-0.9-3.3 0-2.4 1.2-3.8 1.3-1.3 3.2-1.3 2.2 0 3.4 1.4 1.3 1.4 1.2 4.4h-6.4q0 1.1 0.6 1.8 0.6 0.6 1.5 0.6 0.6 0 1-0.3 0.4-0.4 0.6-1.1zm0.2-2.6q-0.1-1.1-0.6-1.7-0.6-0.6-1.3-0.6-0.9 0-1.4 0.6-0.6 0.7-0.6 1.7zm7.1 5.7h-2.5v-9.7h2.3v1.4q0.6-1 1.1-1.3 0.5-0.3 1.1-0.3 0.9 0 1.7 0.5l-0.8 2.2q-0.6-0.4-1.2-0.4-0.5 0-0.9 0.3-0.4 0.3-0.6 1.1-0.2 0.7-0.2 3.2z"/>
			<path id="Layer" fill-rule="evenodd" class="s5" d="m502-472.1h212v173h-212z"/>
			<path id="Layer" class="s6" d="m502-472.1h212v173h-212z"/>
			<path id="Layer" fill-rule="evenodd" class="s3" d="m560.5-425.9h95c12.5 0 22.6 15.2 22.6 33.9 0 18.8-10.1 34-22.6 34h-95c-12.5 0-22.6-15.2-22.6-34 0-18.7 10.1-33.9 22.6-33.9z"/>
			<path id="Layer" class="s6" d="m560.5-425.9h95c12.5 0 22.6 15.2 22.6 33.9 0 18.8-10.1 34-22.6 34h-95c-12.5 0-22.6-15.2-22.6-34 0-18.7 10.1-33.9 22.6-33.9z"/>
			<path id="Layer" fill-rule="evenodd" class="s4" d="m556.1-385.1l5.1-13.3h1.9l5.5 13.3h-2l-1.5-4h-5.6l-1.5 4zm3.9-5.4h4.5l-1.4-3.7q-0.6-1.7-1-2.8-0.2 1.3-0.7 2.5zm10.1 5.5v-13.3h5q1.3 0 2.1 0.1 0.9 0.2 1.6 0.6 0.7 0.5 1.1 1.3 0.4 0.8 0.4 1.8 0 1.7-1.1 2.9-1.1 1.2-3.9 1.2h-3.5v5.4zm1.8-7h3.5q1.7 0 2.4-0.6 0.7-0.7 0.7-1.8 0-0.9-0.4-1.5-0.4-0.6-1.1-0.7-0.5-0.2-1.7-0.2h-3.4zm11 7v-13.3h1.7v13.3zm5.2 0v-1.8h1.8v1.8q0 1.1-0.3 1.7-0.4 0.6-1.2 1l-0.5-0.7q0.6-0.2 0.8-0.7 0.3-0.4 0.3-1.3zm7.6 0l5.2-13.3h1.9l5.4 13.3h-2l-1.5-4h-5.6l-1.5 4zm3.9-5.4h4.5l-1.4-3.8q-0.6-1.6-0.9-2.7-0.3 1.3-0.8 2.5zm9.9 9.2v-13.4h1.5v1.3q0.5-0.7 1.2-1.1 0.6-0.4 1.6-0.4 1.2 0 2.2 0.7 0.9 0.6 1.4 1.8 0.5 1.1 0.5 2.5 0 1.5-0.6 2.7-0.5 1.2-1.5 1.8-1 0.6-2.1 0.6-0.9 0-1.5-0.3-0.7-0.4-1.1-0.9v4.7zm1.5-8.5q0 1.9 0.8 2.8 0.7 0.9 1.8 0.9 1.1 0 1.9-0.9 0.7-1 0.7-2.9 0-1.9-0.7-2.8-0.8-0.9-1.8-0.9-1.1 0-1.9 1-0.8 1-0.8 2.8zm8.9 8.5v-13.4h1.5v1.3q0.5-0.7 1.2-1.1 0.7-0.4 1.6-0.4 1.2 0 2.2 0.7 0.9 0.6 1.4 1.8 0.5 1.1 0.5 2.5 0 1.5-0.5 2.7-0.6 1.2-1.6 1.8-1 0.6-2.1 0.6-0.8 0-1.5-0.3-0.6-0.4-1.1-0.9v4.7zm1.5-8.5q0 1.9 0.8 2.8 0.7 0.9 1.8 0.9 1.1 0 1.9-0.9 0.8-1 0.8-2.9 0-1.9-0.8-2.8-0.7-0.9-1.8-0.9-1.1 0-1.9 1-0.8 1-0.8 2.8zm9.3 4.8v-1.9h1.9v1.9q0 1-0.4 1.7-0.3 0.6-1.1 1l-0.5-0.7q0.6-0.3 0.8-0.7 0.3-0.5 0.3-1.3z"/>
			<path id="Layer" fill-rule="evenodd" class="s4" d="m640.6-385.1v-13.3h4.6q1.5 0 2.3 0.2 1.2 0.2 2 0.9 1.1 0.9 1.6 2.3 0.5 1.4 0.5 3.2 0 1.5-0.4 2.7-0.3 1.2-0.9 1.9-0.5 0.8-1.2 1.2-0.6 0.5-1.6 0.7-0.9 0.2-2.1 0.2zm1.7-1.5h2.9q1.3 0 2.1-0.3 0.7-0.2 1.2-0.7 0.6-0.6 0.9-1.7 0.4-1 0.4-2.5 0-2.1-0.7-3.3-0.7-1.1-1.7-1.5-0.7-0.2-2.2-0.2h-2.9zm11.7 1.5v-13.3h5q1.5 0 2.4 0.4 1 0.4 1.5 1.2 0.5 0.9 0.5 1.8 0 0.9-0.5 1.6-0.4 0.8-1.3 1.2 1.2 0.4 1.8 1.2 0.7 0.9 0.7 2.1 0 0.9-0.4 1.7-0.4 0.8-1 1.2-0.6 0.5-1.5 0.7-0.8 0.2-2.1 0.2zm1.8-7.7h2.8q1.2 0 1.7-0.2 0.7-0.2 1-0.6 0.4-0.5 0.4-1.2 0-0.7-0.4-1.2-0.3-0.5-0.9-0.7-0.6-0.1-2-0.1h-2.6zm0 6.1h3.3q0.8 0 1.2 0 0.6-0.1 1-0.4 0.4-0.3 0.7-0.7 0.2-0.5 0.2-1.2 0-0.7-0.4-1.3-0.3-0.5-1-0.7-0.7-0.3-2-0.3h-3z"/>
			<path id="Layer" class="s0" d="m534.2-513.7h147.6v42h-147.6z"/>
			<path id="Layer" fill-rule="evenodd" class="s4" d="m556.5-486.8v-5.6l-4.9-7.7h3.2l3.1 5.2 3.1-5.2h3.1l-4.9 7.7v5.6zm7-5q0-1.2 0.6-2.4 0.6-1.2 1.8-1.8 1.1-0.7 2.5-0.7 2.2 0 3.6 1.4 1.4 1.5 1.4 3.7 0 2.1-1.4 3.6-1.4 1.4-3.5 1.4-1.4 0-2.6-0.6-1.2-0.6-1.8-1.7-0.6-1.2-0.6-2.9zm2.6 0.2q0 1.4 0.7 2.2 0.6 0.7 1.6 0.7 1 0 1.7-0.7 0.7-0.8 0.7-2.2 0-1.5-0.7-2.2-0.7-0.8-1.7-0.8-1 0-1.6 0.8-0.7 0.7-0.7 2.2zm15.7 4.8v-1.4q-0.5 0.7-1.4 1.2-0.8 0.4-1.8 0.4-1 0-1.7-0.4-0.8-0.4-1.2-1.2-0.3-0.8-0.3-2.1v-6.2h2.6v4.5q0 2 0.1 2.5 0.1 0.5 0.5 0.7 0.4 0.3 1 0.3 0.6 0 1.1-0.4 0.5-0.3 0.7-0.9 0.2-0.5 0.2-2.6v-4.1h2.6v9.7zm7.5 0h-2.6v-9.7h2.4v1.4q0.6-1 1.1-1.3 0.5-0.3 1.1-0.3 0.9 0 1.7 0.5l-0.8 2.2q-0.7-0.4-1.2-0.4-0.6 0-0.9 0.3-0.4 0.3-0.6 1.1-0.2 0.8-0.2 3.2zm9.3-4.3l2.6-0.3q0.3 1.4 1 2 0.7 0.6 1.9 0.6 1.3 0 2-0.6 0.7-0.5 0.7-1.2 0-0.5-0.3-0.9-0.3-0.3-1-0.5-0.5-0.2-2.2-0.6-2.1-0.6-3-1.3-1.2-1.1-1.2-2.7 0-1 0.6-1.9 0.5-0.9 1.6-1.4 1.1-0.4 2.7-0.4 2.5 0 3.7 1.1 1.3 1.1 1.4 2.9l-2.7 0.1q-0.2-1-0.8-1.5-0.5-0.4-1.7-0.4-1.1 0-1.8 0.5-0.4 0.3-0.4 0.8 0 0.5 0.4 0.8 0.5 0.4 2.4 0.9 2 0.5 2.9 1 1 0.5 1.5 1.3 0.6 0.9 0.6 2.1 0 1.2-0.7 2.2-0.6 1-1.8 1.5-1.2 0.5-2.9 0.5-2.5 0-3.9-1.2-1.3-1.2-1.6-3.4zm11.9-5.3h2.7l2.3 6.8 2.3-6.8h2.6l-3.4 9.3-0.6 1.7q-0.3 0.8-0.6 1.2-0.3 0.5-0.7 0.8-0.4 0.2-1 0.4-0.6 0.2-1.3 0.2-0.7 0-1.5-0.2l-0.2-2q0.6 0.1 1.1 0.1 0.9 0 1.3-0.5 0.4-0.5 0.7-1.3zm10.7 6.9l2.5-0.4q0.2 0.7 0.7 1.1 0.5 0.4 1.4 0.4 1 0 1.5-0.4 0.3-0.2 0.3-0.6 0-0.3-0.2-0.5-0.1-0.2-0.8-0.4-3.1-0.7-3.9-1.2-1.2-0.8-1.2-2.2 0-1.3 1-2.1 1-0.9 3.1-0.9 2 0 2.9 0.7 1 0.6 1.4 1.9l-2.4 0.4q-0.2-0.5-0.6-0.8-0.5-0.3-1.3-0.3-1 0-1.4 0.3-0.3 0.2-0.3 0.5 0 0.3 0.3 0.5 0.3 0.2 2.3 0.7 2.1 0.4 2.9 1.1 0.8 0.7 0.8 1.9 0 1.3-1.1 2.3-1.1 1-3.3 1-2 0-3.1-0.8-1.2-0.9-1.5-2.2zm15.7-6.9v2h-1.8v3.9q0 1.2 0.1 1.4 0 0.2 0.2 0.3 0.2 0.1 0.4 0.1 0.4 0 1.1-0.2l0.2 2q-0.9 0.4-2 0.4-0.7 0-1.3-0.3-0.5-0.2-0.8-0.6-0.3-0.3-0.3-1-0.1-0.4-0.1-1.8v-4.2h-1.2v-2h1.2v-2l2.5-1.5v3.5zm7.4 6.6l2.6 0.4q-0.5 1.4-1.6 2.1-1.1 0.8-2.7 0.8-2.5 0-3.7-1.7-0.9-1.3-0.9-3.3 0-2.4 1.2-3.8 1.3-1.4 3.2-1.4 2.2 0 3.4 1.5 1.3 1.4 1.2 4.3h-6.4q0 1.2 0.6 1.8 0.6 0.6 1.5 0.6 0.6 0 1-0.3 0.4-0.3 0.6-1zm0.2-2.6q-0.1-1.1-0.6-1.7-0.6-0.6-1.3-0.6-0.9 0-1.4 0.6-0.6 0.6-0.6 1.7zm4.5-4h2.3v1.3q1.3-1.6 3-1.6 1 0 1.6 0.4 0.7 0.4 1.2 1.2 0.6-0.8 1.3-1.2 0.8-0.4 1.6-0.4 1.1 0 1.8 0.5 0.8 0.4 1.1 1.2 0.3 0.7 0.3 2v6.2h-2.6v-5.5q0-1.4-0.2-1.9-0.4-0.5-1.1-0.5-0.6 0-1 0.3-0.5 0.4-0.7 1-0.2 0.6-0.2 2v4.6h-2.6v-5.3q0-1.4-0.1-1.8-0.2-0.4-0.4-0.6-0.3-0.2-0.8-0.2-0.6 0-1.1 0.3-0.5 0.3-0.7 0.9-0.2 0.6-0.2 2v4.7h-2.5z"/>
			<path id="Layer" fill-rule="evenodd" class="s7" d="m258.2-472.1h182v353.7h-182z"/>
			<path id="Layer" class="s8" d="m258.2-472.1h182v353.7h-182z"/>
			<path id="Layer" fill-rule="evenodd" class="s3" d="m289.9-431.8h118.6v79.1h-118.6z"/>
			<path id="Layer" class="s8" d="m289.9-431.8h118.6v79.1h-118.6z"/>
			<path id="Layer" fill-rule="evenodd" class="s4" d="m317.9-389.6l1.7-0.2q0.1 1 0.5 1.7 0.4 0.6 1.4 1 0.9 0.4 2 0.4 1 0 1.8-0.3 0.8-0.3 1.2-0.8 0.3-0.5 0.3-1.2 0-0.6-0.3-1.1-0.4-0.4-1.2-0.7-0.6-0.3-2.4-0.7-1.9-0.4-2.6-0.8-1-0.5-1.4-1.3-0.5-0.7-0.5-1.6 0-1 0.6-1.9 0.6-0.9 1.7-1.4 1.1-0.4 2.4-0.4 1.5 0 2.6 0.5 1.2 0.4 1.8 1.4 0.6 0.9 0.6 2.1l-1.7 0.1q-0.1-1.3-0.9-1.9-0.8-0.7-2.3-0.7-1.6 0-2.4 0.6-0.7 0.6-0.7 1.5 0 0.7 0.5 1.1 0.5 0.5 2.7 1 2.2 0.5 2.9 0.8 1.2 0.6 1.8 1.4 0.5 0.8 0.5 1.9 0 1.1-0.6 2-0.6 1-1.7 1.5-1.2 0.5-2.6 0.5-1.8 0-3.1-0.5-1.2-0.6-1.9-1.6-0.7-1.1-0.7-2.4zm19.5 1.2l1.7 0.2q-0.5 1.4-1.5 2.3-1.1 0.8-2.8 0.8-2.1 0-3.4-1.3-1.2-1.3-1.2-3.7 0-2.4 1.2-3.8 1.3-1.3 3.3-1.3 1.9 0 3.2 1.3 1.2 1.3 1.2 3.7 0 0.2 0 0.4h-7.2q0.1 1.6 0.9 2.5 0.8 0.8 2 0.8 0.9 0 1.5-0.4 0.7-0.5 1.1-1.5zm-5.4-2.7h5.4q-0.1-1.2-0.6-1.8-0.8-1-2.1-1-1.1 0-1.9 0.8-0.7 0.7-0.8 2zm9.1 5.8v-9.7h1.5v1.5q0.5-1.1 1-1.4 0.5-0.3 1.1-0.3 0.8 0 1.6 0.5l-0.5 1.5q-0.6-0.3-1.2-0.3-0.6 0-1 0.3-0.4 0.3-0.6 0.9-0.3 0.9-0.3 1.9v5.1zm8.9 0l-3.6-9.7h1.7l2.1 5.8q0.3 0.9 0.6 1.9 0.2-0.7 0.6-1.8l2.1-5.9h1.7l-3.6 9.7zm13.2-3.1l1.7 0.2q-0.4 1.4-1.5 2.3-1 0.8-2.7 0.8-2.2 0-3.4-1.3-1.2-1.3-1.2-3.7 0-2.4 1.2-3.8 1.3-1.3 3.3-1.3 1.9 0 3.1 1.3 1.3 1.3 1.3 3.7 0 0.2 0 0.4h-7.2q0 1.6 0.9 2.5 0.8 0.8 2 0.8 0.9 0 1.5-0.4 0.7-0.5 1-1.5zm-5.4-2.7h5.5q-0.2-1.2-0.7-1.8-0.8-1-2-1-1.1 0-1.9 0.8-0.8 0.7-0.9 2zm9.2 5.8v-9.7h1.4v1.5q0.6-1.1 1.1-1.4 0.5-0.3 1-0.3 0.9 0 1.7 0.5l-0.5 1.5q-0.6-0.3-1.2-0.3-0.6 0-1 0.3-0.4 0.3-0.6 0.9-0.3 0.9-0.3 1.9v5.1zm5.6-2.9l1.6-0.3q0.1 1 0.7 1.5 0.7 0.5 1.8 0.5 1.1 0 1.7-0.4 0.5-0.5 0.5-1.1 0-0.6-0.5-0.9-0.3-0.2-1.6-0.5-1.9-0.5-2.6-0.8-0.6-0.4-1-0.9-0.4-0.6-0.4-1.3 0-0.7 0.3-1.2 0.3-0.6 0.8-1 0.4-0.2 1.1-0.4 0.6-0.2 1.4-0.2 1.1 0 2 0.3 0.9 0.3 1.3 0.9 0.4 0.6 0.5 1.5l-1.6 0.2q-0.1-0.7-0.6-1.2-0.5-0.4-1.5-0.4-1.1 0-1.6 0.4-0.5 0.4-0.5 0.9 0 0.3 0.2 0.5 0.2 0.3 0.7 0.5 0.2 0.1 1.4 0.4 1.7 0.5 2.4 0.8 0.7 0.3 1.1 0.8 0.4 0.6 0.4 1.4 0 0.9-0.5 1.6-0.5 0.7-1.4 1.1-0.9 0.4-2 0.4-1.9 0-2.9-0.8-1-0.8-1.2-2.3z"/>
			<path id="Layer" fill-rule="evenodd" class="s3" d="m287.7-263.7c0 8 27.5 14.5 61.5 14.5 34 0 61.5-6.5 61.5-14.5v87.4c0 8.1-27.5 14.6-61.5 14.6-34 0-61.5-6.5-61.5-14.6z"/>
			<path id="Layer" fill-rule="evenodd" class="s3" d="m287.7-263.7c0-8.1 27.5-14.6 61.5-14.6 34 0 61.5 6.5 61.5 14.6 0 8-27.5 14.5-61.5 14.5-34 0-61.5-6.5-61.5-14.5z"/>
			<path id="Layer" class="s0" d="m410.7-263.7c0 8-27.5 14.5-61.5 14.5-34 0-61.5-6.5-61.5-14.5 0-8.1 27.5-14.6 61.5-14.6 34 0 61.5 6.5 61.5 14.6v87.4c0 8.1-27.5 14.6-61.5 14.6-34 0-61.5-6.5-61.5-14.6v-87.4"/>
			<path id="Layer" class="s8" d="m410.7-263.7c0 8-27.5 14.5-61.5 14.5-34 0-61.5-6.5-61.5-14.5 0-8.1 27.5-14.6 61.5-14.6 34 0 61.5 6.5 61.5 14.6v87.4c0 8.1-27.5 14.6-61.5 14.6-34 0-61.5-6.5-61.5-14.6v-87.4"/>
			<path id="Layer" fill-rule="evenodd" class="s4" d="m310.7-216.8v-13.4h4.6q1.6 0 2.4 0.2 1.1 0.3 1.9 1 1.1 0.9 1.6 2.3 0.6 1.4 0.6 3.1 0 1.6-0.4 2.7-0.4 1.2-0.9 2-0.6 0.7-1.2 1.2-0.7 0.4-1.6 0.7-1 0.2-2.2 0.2zm1.8-1.6h2.9q1.3 0 2-0.2 0.8-0.3 1.2-0.7 0.6-0.7 1-1.7 0.4-1.1 0.4-2.6 0-2.1-0.7-3.2-0.7-1.1-1.7-1.5-0.7-0.3-2.3-0.3h-2.8zm17.8 0.4q-0.9 0.8-1.7 1.1-0.9 0.3-1.8 0.3-1.6 0-2.5-0.8-0.9-0.8-0.9-2 0-0.7 0.4-1.3 0.3-0.6 0.8-0.9 0.5-0.4 1.2-0.5 0.5-0.2 1.5-0.3 1.9-0.2 2.9-0.6 0-0.3 0-0.4 0-1-0.5-1.4-0.6-0.5-1.9-0.5-1.1 0-1.7 0.4-0.5 0.4-0.8 1.4l-1.6-0.2q0.2-1.1 0.7-1.7 0.5-0.6 1.5-1 0.9-0.3 2.2-0.3 1.2 0 2 0.3 0.8 0.3 1.1 0.7 0.4 0.5 0.6 1.1 0 0.5 0 1.6v2.1q0 2.3 0.1 2.9 0.2 0.6 0.4 1.2h-1.7q-0.2-0.5-0.3-1.2zm-0.1-3.7q-0.9 0.4-2.7 0.7-1 0.1-1.4 0.3-0.5 0.2-0.7 0.5-0.2 0.4-0.2 0.8 0 0.6 0.5 1.1 0.5 0.4 1.4 0.4 1 0 1.7-0.4 0.8-0.4 1.1-1.1 0.3-0.6 0.3-1.7zm7.8 3.4l0.2 1.5q-0.7 0.1-1.2 0.1-0.9 0-1.4-0.3-0.5-0.2-0.7-0.7-0.2-0.5-0.2-1.9v-5.6h-1.2v-1.3h1.2v-2.4l1.6-1v3.4h1.7v1.3h-1.7v5.7q0 0.6 0.1 0.9 0.1 0.2 0.3 0.3 0.2 0.1 0.5 0.1 0.3 0 0.8-0.1zm7.9 0.3q-0.9 0.8-1.8 1.1-0.8 0.3-1.8 0.3-1.6 0-2.4-0.8-0.9-0.7-0.9-2 0-0.7 0.3-1.2 0.4-0.6 0.9-1 0.5-0.3 1.2-0.5 0.4-0.2 1.4-0.3 2-0.2 2.9-0.5 0-0.4 0-0.5 0-1-0.4-1.4-0.6-0.5-1.9-0.5-1.2 0-1.7 0.4-0.5 0.4-0.8 1.4l-1.6-0.2q0.2-1 0.7-1.7 0.5-0.6 1.5-1 0.9-0.3 2.1-0.3 1.3 0 2.1 0.3 0.7 0.3 1.1 0.7 0.4 0.5 0.5 1.1 0.1 0.5 0.1 1.6v2.1q0 2.3 0.1 2.9 0.1 0.6 0.4 1.2h-1.7q-0.3-0.5-0.3-1.2zm-0.2-3.7q-0.9 0.4-2.6 0.7-1.1 0.1-1.5 0.3-0.4 0.2-0.6 0.5-0.3 0.4-0.3 0.8 0 0.7 0.5 1.1 0.5 0.4 1.5 0.4 0.9 0 1.7-0.4 0.7-0.4 1.1-1.1 0.2-0.6 0.2-1.7zm5.7 4.9h-1.5v-13.4h1.7v4.8q1-1.3 2.6-1.3 0.9 0 1.7 0.4 0.8 0.3 1.3 1 0.5 0.6 0.8 1.6 0.3 0.9 0.3 1.9 0 2.5-1.2 3.9-1.2 1.3-3 1.3-1.7 0-2.7-1.4zm0-4.9q0 1.7 0.5 2.5 0.8 1.3 2.1 1.3 1.1 0 1.9-1 0.7-0.9 0.7-2.8 0-1.8-0.7-2.8-0.8-0.9-1.8-0.9-1.1 0-1.9 1-0.8 0.9-0.8 2.7zm15.2 3.7q-0.9 0.8-1.7 1.1-0.9 0.3-1.8 0.3-1.6 0-2.5-0.8-0.8-0.8-0.8-2 0-0.7 0.3-1.3 0.3-0.6 0.8-0.9 0.6-0.4 1.2-0.5 0.5-0.2 1.5-0.3 1.9-0.2 2.9-0.6 0-0.3 0-0.4 0-1-0.5-1.4-0.6-0.5-1.8-0.5-1.2 0-1.7 0.4-0.6 0.4-0.9 1.4l-1.6-0.2q0.3-1.1 0.8-1.7 0.5-0.6 1.4-1 1-0.3 2.2-0.3 1.2 0 2 0.3 0.8 0.3 1.1 0.7 0.4 0.5 0.6 1.1 0 0.5 0 1.6v2.1q0 2.3 0.2 2.9 0.1 0.6 0.4 1.2h-1.7q-0.3-0.5-0.4-1.2zm-0.1-3.7q-0.9 0.4-2.7 0.7-1 0.1-1.4 0.3-0.4 0.2-0.7 0.5-0.2 0.4-0.2 0.8 0 0.6 0.5 1.1 0.5 0.4 1.5 0.4 0.9 0 1.6-0.4 0.8-0.4 1.1-1.1 0.3-0.6 0.3-1.7zm3.5 2l1.7-0.2q0.1 0.9 0.7 1.5 0.6 0.5 1.8 0.5 1.1 0 1.6-0.5 0.6-0.5 0.6-1.1 0-0.5-0.5-0.9-0.3-0.2-1.7-0.5-1.8-0.5-2.5-0.8-0.7-0.3-1-0.9-0.4-0.6-0.4-1.3 0-0.7 0.3-1.2 0.3-0.6 0.8-0.9 0.4-0.3 1-0.5 0.7-0.2 1.5-0.2 1.1 0 2 0.3 0.8 0.4 1.2 0.9 0.4 0.6 0.6 1.5l-1.6 0.2q-0.1-0.7-0.6-1.1-0.6-0.5-1.5-0.5-1.2 0-1.6 0.4-0.5 0.4-0.5 0.9 0 0.3 0.2 0.6 0.2 0.2 0.6 0.4 0.3 0.1 1.5 0.4 1.7 0.5 2.4 0.8 0.7 0.3 1.1 0.8 0.4 0.6 0.4 1.5 0 0.8-0.5 1.5-0.5 0.7-1.4 1.1-0.9 0.4-2 0.4-1.9 0-2.9-0.8-1-0.7-1.3-2.3zm16.6-0.2l1.7 0.2q-0.4 1.5-1.5 2.3-1 0.8-2.7 0.8-2.1 0-3.4-1.3-1.2-1.3-1.2-3.7 0-2.4 1.2-3.8 1.3-1.3 3.3-1.3 1.9 0 3.1 1.3 1.3 1.3 1.3 3.7 0 0.2 0 0.5h-7.2q0.1 1.6 0.9 2.4 0.8 0.9 2 0.9 0.9 0 1.5-0.5 0.7-0.5 1-1.5zm-5.3-2.7h5.4q-0.2-1.2-0.7-1.8-0.7-1-2-1-1.1 0-1.9 0.8-0.8 0.8-0.8 2z"/>
			<path id="Layer" fill-rule="evenodd" class="s4" d="m312.4-190.9q-1.3-1.7-2.3-4-0.9-2.3-0.9-4.8 0-2.1 0.7-4.1 0.8-2.3 2.5-4.6h1.2q-1.1 1.9-1.4 2.7-0.6 1.3-0.9 2.6-0.4 1.7-0.4 3.5 0 4.3 2.7 8.7zm1.8-3.9l5.2-13.4h1.9l5.4 13.4h-2l-1.5-4.1h-5.6l-1.5 4.1zm3.9-5.5h4.5l-1.4-3.7q-0.6-1.7-0.9-2.8-0.3 1.3-0.8 2.6zm11.7 5.5l-3.5-13.4h1.8l2 8.8q0.4 1.3 0.6 2.7 0.5-2.1 0.6-2.5l2.5-9h2.2l1.9 6.8q0.7 2.5 1 4.7 0.3-1.3 0.7-2.9l2.1-8.6h1.8l-3.7 13.4h-1.7l-2.8-10.2q-0.4-1.3-0.4-1.6-0.2 0.9-0.4 1.6l-2.9 10.2zm14.7-4.3l1.7-0.2q0.1 1 0.5 1.7 0.5 0.6 1.4 1 0.9 0.4 2 0.4 1 0 1.8-0.3 0.8-0.3 1.2-0.8 0.3-0.5 0.3-1.2 0-0.6-0.3-1.1-0.4-0.4-1.2-0.7-0.6-0.3-2.4-0.7-1.8-0.4-2.6-0.8-0.9-0.5-1.4-1.3-0.5-0.7-0.5-1.6 0-1 0.6-1.9 0.6-0.9 1.7-1.4 1.1-0.4 2.4-0.4 1.5 0 2.6 0.5 1.2 0.4 1.8 1.4 0.6 0.9 0.6 2.1l-1.6 0.1q-0.2-1.3-1-1.9-0.8-0.7-2.3-0.7-1.6 0-2.3 0.6-0.8 0.6-0.8 1.5 0 0.7 0.6 1.1 0.5 0.5 2.6 1 2.2 0.5 3 0.8 1.1 0.6 1.7 1.4 0.6 0.8 0.6 1.9 0 1.1-0.7 2-0.6 1-1.7 1.5-1.1 0.5-2.6 0.5-1.8 0-3-0.5-1.3-0.6-2-1.6-0.6-1.1-0.7-2.4zm17.7 0l1.6-0.2q0.1 1 0.6 1.7 0.4 0.6 1.3 1 0.9 0.4 2.1 0.4 1 0 1.7-0.3 0.8-0.3 1.2-0.8 0.4-0.5 0.4-1.2 0-0.6-0.4-1.1-0.4-0.4-1.2-0.7-0.5-0.3-2.4-0.7-1.8-0.4-2.5-0.8-1-0.5-1.5-1.3-0.4-0.7-0.4-1.6 0-1 0.5-1.9 0.6-0.9 1.7-1.4 1.1-0.4 2.5-0.4 1.4 0 2.6 0.5 1.1 0.4 1.7 1.4 0.6 0.9 0.7 2.1l-1.7 0.1q-0.2-1.3-1-1.9-0.7-0.7-2.3-0.7-1.6 0-2.3 0.6-0.7 0.6-0.7 1.5 0 0.7 0.5 1.1 0.5 0.5 2.6 1 2.2 0.5 3 0.8 1.2 0.6 1.7 1.4 0.6 0.8 0.6 1.9 0 1.1-0.6 2-0.6 1-1.8 1.5-1.1 0.5-2.6 0.5-1.8 0-3-0.5-1.2-0.6-1.9-1.6-0.7-1.1-0.7-2.4zm12.3 0.7l1.7-0.2q0.3 1.4 0.9 2 0.7 0.6 1.7 0.6 1.1 0 1.9-0.8 0.8-0.8 0.8-1.9 0-1.2-0.7-1.9-0.7-0.7-1.9-0.7-0.4 0-1.1 0.1l0.2-1.4q0.1 0 0.2 0 1.1 0 1.9-0.5 0.8-0.6 0.8-1.7 0-0.9-0.6-1.5-0.6-0.6-1.5-0.6-1 0-1.6 0.6-0.7 0.6-0.9 1.8l-1.6-0.3q0.3-1.6 1.4-2.5 1-0.9 2.6-0.9 1.1 0 2 0.4 0.9 0.5 1.4 1.3 0.5 0.8 0.5 1.7 0 0.9-0.4 1.6-0.5 0.7-1.4 1.1 1.2 0.3 1.8 1.2 0.7 0.8 0.7 2.1 0 1.8-1.3 3-1.3 1.2-3.2 1.2-1.8 0-2.9-1-1.2-1.1-1.4-2.8zm11.9 7.5h-1.1q2.7-4.4 2.7-8.8 0-1.7-0.4-3.4-0.3-1.3-0.9-2.6-0.3-0.8-1.4-2.7h1.1q1.7 2.3 2.6 4.6 0.7 2 0.7 4.1 0 2.5-1 4.8-0.9 2.3-2.3 4z"/>
			<path id="Layer" class="s0" d="m349.2-352.7v74.4"/>
			<path id="Layer" class="s9" d="m349.2-352.7v56.4"/>
			<path id="Layer" fill-rule="evenodd" class="s10" d="m344.2-296.3l5 13.6 5-13.6z"/>
			<path id="Layer" class="s0" d="m297.6-513.7h103.2v42h-103.2z"/>
			<path id="Layer" fill-rule="evenodd" class="s4" d="m323.3-491.7l2.7 0.8q-0.6 2.2-2 3.3-1.4 1.1-3.6 1.1-2.7 0-4.4-1.9-1.7-1.8-1.7-4.9 0-3.4 1.7-5.2 1.8-1.9 4.6-1.9 2.4 0 3.9 1.5 1 0.8 1.4 2.4l-2.7 0.7q-0.2-1.1-0.9-1.7-0.8-0.6-1.9-0.6-1.4 0-2.4 1.1-0.9 1.1-0.9 3.5 0 2.5 0.9 3.6 0.9 1 2.4 1 1.1 0 1.8-0.6 0.8-0.7 1.1-2.2zm4.3 0.6l2.6-0.3q0.2 1.3 1 2 0.7 0.6 1.9 0.6 1.3 0 2-0.6 0.7-0.5 0.7-1.3 0-0.4-0.3-0.8-0.3-0.3-1-0.5-0.5-0.2-2.2-0.6-2.1-0.6-3-1.4-1.2-1-1.2-2.6 0-1.1 0.5-1.9 0.6-0.9 1.7-1.4 1.1-0.5 2.6-0.5 2.6 0 3.8 1.1 1.3 1.1 1.4 3l-2.7 0.1q-0.2-1-0.8-1.5-0.6-0.4-1.7-0.4-1.2 0-1.8 0.4-0.5 0.4-0.5 0.9 0 0.5 0.4 0.8 0.5 0.4 2.5 0.9 2 0.4 2.9 0.9 1 0.5 1.5 1.4 0.5 0.9 0.5 2.1 0 1.2-0.6 2.2-0.6 1-1.8 1.5-1.2 0.5-2.9 0.5-2.5 0-3.9-1.2-1.4-1.2-1.6-3.4zm16.5 4.3l-4.8-13.3h3l3.3 9.8 3.3-9.8h2.9l-4.8 13.3zm8.9 0v-13.3h2.6v4.8q1.1-1.4 2.8-1.4 1.7 0 2.9 1.3 1.1 1.3 1.1 3.7 0 2.5-1.1 3.8-1.2 1.3-2.9 1.3-0.8 0-1.6-0.4-0.8-0.4-1.4-1.2v1.4zm2.5-5q0 1.5 0.5 2.2 0.7 1 1.8 1 0.8 0 1.4-0.7 0.6-0.7 0.6-2.3 0-1.7-0.6-2.4-0.6-0.7-1.5-0.7-1 0-1.6 0.7-0.6 0.7-0.6 2.2zm8.4 0q0-1.2 0.6-2.4 0.6-1.2 1.8-1.8 1.2-0.7 2.6-0.7 2.2 0 3.6 1.4 1.4 1.5 1.4 3.7 0 2.1-1.4 3.6-1.5 1.4-3.6 1.4-1.3 0-2.6-0.6-1.2-0.6-1.8-1.7-0.6-1.2-0.6-2.9zm2.6 0.2q0 1.4 0.7 2.2 0.7 0.7 1.7 0.7 1 0 1.6-0.7 0.7-0.8 0.7-2.2 0-1.5-0.7-2.2-0.6-0.8-1.6-0.8-1 0-1.7 0.8-0.7 0.7-0.7 2.2zm8.1 4.8l3.5-5-3.3-4.7h3.1l1.7 2.7 1.8-2.7h3l-3.2 4.6 3.5 5.1h-3.1l-2-3-2 3z"/>
			<path id="Layer" class="s0" d="m418.7-220h189.3v-138"/>
			<path id="Layer" class="s11" d="m418.7-220h189.3v-120"/>
			<path id="Layer" fill-rule="evenodd" class="s10" d="m613-340l-5-13.6-5 13.6z"/>
			<path id="Layer" class="s0" d="m513.6-265h93.5v42h-93.5z"/>
			<path id="Layer" fill-rule="evenodd" class="s4" d="m526.5-244.6q0-3.3 1.8-5.2 1.8-1.9 4.6-1.9 1.8 0 3.3 0.9 1.5 0.9 2.3 2.5 0.8 1.5 0.8 3.5 0 2.1-0.9 3.7-0.8 1.6-2.3 2.4-1.5 0.8-3.2 0.8-1.9 0-3.4-0.9-1.5-0.9-2.2-2.5-0.8-1.5-0.8-3.3zm1.8 0q0 2.4 1.3 3.8 1.3 1.4 3.3 1.4 2 0 3.3-1.4 1.2-1.4 1.2-4 0-1.6-0.5-2.8-0.6-1.2-1.6-1.9-1.1-0.7-2.4-0.7-1.9 0-3.2 1.3-1.4 1.3-1.4 4.3zm13 10.2v-13.4h1.5v1.3q0.6-0.8 1.2-1.1 0.7-0.4 1.6-0.4 1.3 0 2.2 0.7 1 0.6 1.4 1.8 0.5 1.1 0.5 2.5 0 1.5-0.5 2.7-0.5 1.2-1.5 1.8-1.1 0.6-2.2 0.6-0.8 0-1.5-0.3-0.6-0.4-1-0.9v4.7zm1.5-8.5q0 1.9 0.7 2.8 0.8 0.9 1.8 0.9 1.1 0 1.9-0.9 0.8-1 0.8-2.9 0-1.9-0.8-2.8-0.7-0.9-1.8-0.9-1 0-1.8 1-0.8 0.9-0.8 2.8zm12.4 3.3l0.3 1.5q-0.7 0.1-1.3 0.1-0.9 0-1.4-0.3-0.4-0.2-0.6-0.7-0.2-0.5-0.2-1.9v-5.6h-1.3v-1.3h1.3v-2.4l1.6-0.9v3.3h1.6v1.3h-1.6v5.7q0 0.7 0.1 0.9 0 0.2 0.2 0.3 0.2 0.1 0.6 0.1 0.3 0 0.7-0.1zm1.6-10v-1.9h1.7v1.9zm0 11.5v-9.7h1.6v9.7zm3.6-4.8q0-2.7 1.4-4 1.3-1.1 3.1-1.1 2 0 3.3 1.3 1.2 1.3 1.2 3.6 0 1.9-0.5 3-0.6 1-1.7 1.6-1 0.6-2.3 0.6-2 0-3.3-1.3-1.2-1.3-1.2-3.7zm1.6 0q0 1.8 0.8 2.8 0.9 0.9 2.1 0.9 1.2 0 2-0.9 0.8-1 0.8-2.9 0-1.8-0.8-2.7-0.8-0.9-2-0.9-1.2 0-2.1 0.9-0.8 0.9-0.8 2.8zm9.3 4.8v-9.7h1.5v1.4q1.1-1.6 3.1-1.6 0.9 0 1.6 0.3 0.7 0.3 1.1 0.9 0.4 0.5 0.5 1.2 0.1 0.4 0.1 1.6v5.9h-1.6v-5.9q0-1-0.2-1.5-0.2-0.5-0.7-0.8-0.5-0.3-1.2-0.3-1 0-1.8 0.7-0.7 0.7-0.7 2.5v5.3zm16.7-1.2q-1 0.8-1.8 1.1-0.8 0.3-1.8 0.3-1.6 0-2.4-0.8-0.9-0.7-0.9-1.9 0-0.8 0.3-1.3 0.3-0.6 0.9-1 0.5-0.3 1.2-0.5 0.4-0.1 1.4-0.3 2-0.2 2.9-0.5 0-0.4 0-0.5 0-1-0.4-1.4-0.7-0.5-1.9-0.5-1.2 0-1.7 0.4-0.6 0.4-0.8 1.4l-1.6-0.2q0.2-1 0.7-1.7 0.5-0.6 1.4-0.9 1-0.4 2.2-0.4 1.3 0 2 0.3 0.8 0.3 1.2 0.7 0.4 0.5 0.5 1.2 0.1 0.4 0.1 1.5v2.2q0 2.2 0.1 2.8 0.1 0.6 0.4 1.2h-1.7q-0.3-0.5-0.3-1.2zm-0.2-3.7q-0.9 0.4-2.6 0.7-1.1 0.1-1.5 0.3-0.4 0.2-0.6 0.5-0.3 0.4-0.3 0.8 0 0.7 0.5 1.1 0.5 0.4 1.5 0.4 0.9 0 1.7-0.4 0.7-0.4 1.1-1.1 0.2-0.6 0.2-1.6zm4.2 4.8v-13.3h1.6v13.3z"/>
			<path id="Layer" class="s0" d="m175.6-392.3h114.3"/>
			<path id="Layer" class="s9" d="m175.6-392.3h96.3"/>
			<path id="Layer" fill-rule="evenodd" class="s10" d="m271.9-387.3l13.6-5-13.6-4.9z"/>
			<path id="Layer" class="s0" d="m408.5-392.3l129.4 0.3"/>
			<path id="Layer" class="s9" d="m408.5-392.3l111.4 0.3"/>
			<path id="Layer" fill-rule="evenodd" class="s10" d="m519.9-387.1l13.6-4.9-13.6-5z"/>
			<path id="Layer" fill-rule="evenodd" class="s1" d="m14.5 41h181.9v173h-181.9z"/>
			<path id="Layer" class="s2" d="m14.5 41h181.9v173h-181.9z"/>
			<path id="Layer" fill-rule="evenodd" class="s3" d="m35.4 92.9h120.7v49.7q0 0 0 0c0 0 4.5-0.4 9.1-0.4v-7c0 0 5.2-0.3 10.4-0.3v-56.3h-120.9v7.1h-9.4v7.2h110.8v56.2c-60.4 0-60.4 21.6-120.7 10.8z"/>
			<path id="Layer" class="s0" d="m35.4 92.9h120.7v56.2c-60.4 0-60.4 21.6-120.7 10.8zm9.9 0v-7.3h119.9v56.5c-4.6 0-9.1 0.4-9.1 0.4m-101.4-56.9v-7.1h120.9v56.3c-5.2 0-10.4 0.3-10.4 0.3"/>
			<path id="Layer" class="s0" d="m35.4 159.9c60.3 10.8 60.3-10.8 120.7-10.8v-6.5c0 0 4.5-0.4 9.1-0.4v-7c0 0 5.2-0.3 10.4-0.3v-56.3h-120.9v7.1h-9.4v7.2h-9.9z"/>
			<path id="Layer" class="s2" d="m35.4 92.9h120.7v56.2c-60.4 0-60.4 21.6-120.7 10.8zm9.9 0v-7.3h119.9v56.5c-4.6 0-9.1 0.4-9.1 0.4m-101.4-56.9v-7.1h120.9v56.3c-5.2 0-10.4 0.3-10.4 0.3"/>
			<path id="Layer" fill-rule="evenodd" class="s4" d="m55.3 128.7l1.8 0.4q-0.6 2.2-2 3.3-1.4 1.2-3.5 1.2-2.2 0-3.5-0.9-1.4-0.9-2.1-2.5-0.7-1.7-0.7-3.6 0-2.1 0.8-3.7 0.8-1.5 2.3-2.3 1.4-0.8 3.2-0.8 2 0 3.4 1 1.3 1 1.9 2.9l-1.8 0.4q-0.4-1.5-1.3-2.2-0.9-0.6-2.2-0.6-1.6 0-2.6 0.7-1 0.7-1.5 2-0.4 1.2-0.4 2.6 0 1.7 0.5 2.9 0.5 1.3 1.6 1.9 1 0.7 2.2 0.7 1.5 0 2.6-0.9 1-0.9 1.3-2.5zm3.4 0.3l1.7-0.1q0.1 1 0.5 1.6 0.4 0.7 1.3 1.1 1 0.4 2.1 0.4 1 0 1.8-0.3 0.8-0.3 1.1-0.8 0.4-0.6 0.4-1.2 0-0.6-0.4-1.1-0.3-0.4-1.1-0.8-0.6-0.2-2.4-0.6-1.9-0.5-2.6-0.9-1-0.5-1.4-1.2-0.5-0.7-0.5-1.7 0-1 0.6-1.8 0.6-0.9 1.6-1.4 1.2-0.4 2.5-0.4 1.5 0 2.6 0.4 1.1 0.5 1.8 1.5 0.6 0.9 0.6 2l-1.7 0.2q-0.1-1.3-0.9-1.9-0.8-0.7-2.3-0.7-1.6 0-2.4 0.6-0.7 0.6-0.7 1.4 0 0.7 0.5 1.2 0.5 0.5 2.7 1 2.1 0.4 2.9 0.8 1.2 0.5 1.8 1.4 0.5 0.8 0.5 1.9 0 1-0.6 2-0.6 0.9-1.7 1.5-1.2 0.5-2.6 0.5-1.8 0-3.1-0.6-1.2-0.5-1.9-1.6-0.7-1-0.7-2.4zm16.8 4.3l-5.1-13.3h1.9l3.5 9.7q0.4 1.2 0.7 2.2 0.3-1.1 0.7-2.2l3.6-9.7h1.8l-5.2 13.3zm7.1 0v-1.8h1.9v1.8q0 1.1-0.4 1.7-0.4 0.6-1.2 1l-0.4-0.7q0.5-0.2 0.7-0.7 0.3-0.4 0.3-1.3zm10.2 0v-13.3h9.7v1.6h-7.9v4.1h7.4v1.5h-7.4v4.6h8.2v1.5zm11.1 0l3.5-5-3.2-4.6h2l1.5 2.2q0.4 0.7 0.7 1.1 0.4-0.6 0.7-1.1l1.6-2.2h2l-3.4 4.5 3.6 5.1h-2l-2-3-0.5-0.8-2.5 3.8zm16.7-3.5l1.6 0.2q-0.2 1.7-1.3 2.6-1.1 1-2.7 1-2 0-3.2-1.3-1.2-1.3-1.2-3.8 0-1.5 0.5-2.7 0.5-1.2 1.6-1.8 1.1-0.6 2.3-0.6 1.6 0 2.6 0.8 1 0.8 1.3 2.3l-1.6 0.2q-0.3-0.9-0.8-1.4-0.6-0.5-1.4-0.5-1.3 0-2 0.9-0.8 0.9-0.8 2.8 0 1.9 0.7 2.8 0.8 0.9 2 0.9 0.9 0 1.6-0.6 0.6-0.6 0.8-1.8zm9.7 0.4l1.6 0.2q-0.4 1.5-1.4 2.3-1.1 0.9-2.8 0.9-2.1 0-3.4-1.3-1.2-1.4-1.2-3.7 0-2.5 1.2-3.8 1.3-1.4 3.3-1.4 1.9 0 3.2 1.4 1.2 1.3 1.2 3.7 0 0.1 0 0.4h-7.2q0.1 1.6 0.9 2.5 0.8 0.8 2 0.8 0.9 0 1.5-0.5 0.7-0.4 1.1-1.5zm-5.4-2.6h5.4q-0.1-1.2-0.7-1.9-0.7-0.9-2-0.9-1.1 0-1.9 0.8-0.8 0.7-0.8 2zm9.1 5.7v-13.3h1.6v13.3z"/>
			<path id="Layer" class="s0" d="m14.5-0.6h181.9v42h-181.9z"/>
			<path id="Layer" fill-rule="evenodd" class="s4" d="m49.5 21.4l2.7 0.8q-0.6 2.2-2 3.3-1.4 1-3.6 1-2.6 0-4.4-1.8-1.7-1.8-1.7-5 0-3.3 1.7-5.1 1.8-1.9 4.6-1.9 2.4 0 3.9 1.5 1 0.8 1.4 2.4l-2.6 0.7q-0.3-1.1-1-1.7-0.8-0.6-1.9-0.6-1.4 0-2.4 1.1-0.9 1.1-0.9 3.4 0 2.6 0.9 3.6 0.9 1.1 2.4 1.1 1.1 0 1.8-0.7 0.8-0.6 1.1-2.1zm5 4.9v-13.4h2.5v13.4zm5.2-11v-2.4h2.6v2.4zm0 11v-9.7h2.5v9.7zm10.8-3.1l2.6 0.4q-0.5 1.4-1.6 2.2-1.1 0.7-2.7 0.7-2.5 0-3.7-1.6-0.9-1.4-0.9-3.4 0-2.4 1.2-3.7 1.3-1.4 3.2-1.4 2.2 0 3.4 1.4 1.3 1.5 1.2 4.4h-6.4q0 1.1 0.6 1.8 0.6 0.6 1.5 0.6 0.6 0 1-0.3 0.4-0.3 0.6-1.1zm0.2-2.6q-0.1-1.1-0.6-1.7-0.6-0.5-1.3-0.5-0.9 0-1.4 0.6-0.6 0.6-0.6 1.6zm13.5 5.7h-2.6v-4.9q0-1.6-0.2-2.1-0.1-0.4-0.5-0.7-0.4-0.2-0.9-0.2-0.7 0-1.2 0.3-0.5 0.4-0.7 1-0.2 0.6-0.2 2.2v4.4h-2.6v-9.7h2.4v1.4q1.3-1.6 3.2-1.6 0.8 0 1.6 0.3 0.7 0.3 1 0.8 0.4 0.5 0.5 1.1 0.2 0.6 0.2 1.7zm7-9.7v2h-1.8v3.9q0 1.2 0.1 1.4 0 0.2 0.2 0.4 0.2 0.1 0.4 0.1 0.4 0 1.1-0.3l0.2 2q-0.9 0.4-2 0.4-0.7 0-1.3-0.2-0.5-0.3-0.8-0.6-0.2-0.4-0.3-1-0.1-0.5-0.1-1.8v-4.3h-1.2v-2h1.2v-1.9l2.5-1.5v3.4zm7-3.7h5.4q1.6 0 2.3 0.2 0.8 0.1 1.4 0.5 0.6 0.4 1 1.1 0.4 0.7 0.4 1.6 0 0.9-0.5 1.7-0.5 0.8-1.3 1.2 1.2 0.3 1.8 1.2 0.7 0.9 0.7 2 0 0.9-0.4 1.8-0.4 0.8-1.2 1.4-0.7 0.5-1.8 0.6-0.7 0.1-3.2 0.1h-4.6zm2.7 2.2v3.1h1.8q1.6 0 1.9-0.1 0.7 0 1.1-0.4 0.4-0.4 0.4-1.1 0-0.6-0.3-1-0.3-0.4-1-0.5-0.4 0-2.3 0zm0 5.3v3.6h2.5q1.4 0 1.8-0.1 0.6-0.1 1-0.5 0.4-0.4 0.4-1.2 0-0.6-0.3-1-0.3-0.4-0.9-0.6-0.5-0.2-2.4-0.2zm13.2 5.8h-2.5v-9.6h2.4v1.3q0.6-0.9 1.1-1.2 0.4-0.3 1.1-0.3 0.8 0 1.6 0.4l-0.7 2.3q-0.7-0.5-1.3-0.5-0.5 0-0.9 0.3-0.3 0.3-0.6 1.1-0.2 0.8-0.2 3.3zm4.3-5q0-1.3 0.6-2.5 0.6-1.2 1.8-1.8 1.1-0.6 2.5-0.6 2.2 0 3.6 1.4 1.4 1.4 1.4 3.6 0 2.2-1.4 3.6-1.4 1.5-3.5 1.5-1.4 0-2.6-0.6-1.2-0.6-1.8-1.8-0.6-1.2-0.6-2.8zm2.6 0.1q0 1.5 0.7 2.2 0.6 0.8 1.6 0.8 1 0 1.7-0.8 0.7-0.7 0.7-2.2 0-1.4-0.7-2.2-0.7-0.8-1.7-0.8-1 0-1.6 0.8-0.7 0.8-0.7 2.2zm11.1 4.9l-3-9.7h2.5l1.8 6.3 1.7-6.3h2.4l1.6 6.3 1.9-6.3h2.5l-3.1 9.7h-2.5l-1.6-6.3-1.7 6.3zm11.8-2.8l2.6-0.4q0.2 0.8 0.7 1.1 0.5 0.4 1.4 0.4 1 0 1.5-0.3 0.3-0.3 0.3-0.7 0-0.3-0.2-0.5-0.2-0.2-0.8-0.3-3.1-0.7-4-1.3-1.1-0.8-1.1-2.2 0-1.2 1-2.1 1-0.8 3.1-0.8 1.9 0 2.9 0.6 1 0.7 1.3 1.9l-2.4 0.5q-0.1-0.6-0.6-0.9-0.4-0.3-1.2-0.3-1 0-1.4 0.3-0.3 0.2-0.3 0.5 0 0.3 0.2 0.5 0.4 0.2 2.4 0.7 2.1 0.4 2.9 1.1 0.8 0.7 0.8 1.9 0 1.4-1.1 2.3-1.1 1-3.3 1-2 0-3.2-0.8-1.1-0.8-1.5-2.2zm16.9-0.3l2.6 0.4q-0.5 1.4-1.6 2.1-1 0.8-2.6 0.8-2.6 0-3.8-1.7-0.9-1.3-0.9-3.3 0-2.4 1.2-3.8 1.3-1.3 3.2-1.3 2.2 0 3.4 1.4 1.3 1.4 1.2 4.4h-6.4q0 1.1 0.6 1.7 0.6 0.7 1.5 0.7 0.6 0 1-0.4 0.4-0.3 0.6-1zm0.2-2.6q-0.1-1.1-0.6-1.7-0.6-0.6-1.3-0.6-0.9 0-1.4 0.6-0.6 0.6-0.6 1.7zm7.1 5.7h-2.5v-9.7h2.3v1.4q0.6-1 1.1-1.3 0.5-0.3 1.1-0.3 0.9 0 1.7 0.5l-0.8 2.2q-0.6-0.4-1.2-0.4-0.5 0-0.9 0.3-0.4 0.3-0.6 1-0.2 0.8-0.2 3.3z"/>
			<path id="Layer" fill-rule="evenodd" class="s5" d="m502 41h212v173h-212z"/>
			<path id="Layer" class="s6" d="m502 41h212v173h-212z"/>
			<path id="Layer" fill-rule="evenodd" class="s3" d="m560.5 87.1h95c12.5 0 22.6 15.2 22.6 34 0 18.8-10.1 34-22.6 34h-95c-12.5 0-22.6-15.2-22.6-34 0-18.8 10.1-34 22.6-34z"/>
			<path id="Layer" class="s6" d="m560.5 87.1h95c12.5 0 22.6 15.2 22.6 34 0 18.8-10.1 34-22.6 34h-95c-12.5 0-22.6-15.2-22.6-34 0-18.8 10.1-34 22.6-34z"/>
			<path id="Layer" fill-rule="evenodd" class="s4" d="m556.1 128l5.1-13.3h1.9l5.5 13.3h-2l-1.5-4h-5.6l-1.5 4zm3.9-5.5h4.5l-1.4-3.7q-0.6-1.7-1-2.7-0.2 1.2-0.7 2.5zm10.1 5.5v-13.4h5q1.3 0 2.1 0.2 0.9 0.1 1.6 0.6 0.7 0.5 1.1 1.3 0.4 0.8 0.4 1.8 0 1.7-1.1 2.9-1.1 1.2-3.9 1.2h-3.5v5.4zm1.8-7h3.5q1.7 0 2.4-0.6 0.7-0.7 0.7-1.8 0-0.9-0.4-1.5-0.4-0.6-1.1-0.8-0.5-0.1-1.7-0.1h-3.4zm11 7v-13.3h1.7v13.3zm5.2 0v-1.9h1.8v1.9q0 1-0.3 1.7-0.4 0.6-1.2 1l-0.5-0.7q0.6-0.3 0.8-0.7 0.3-0.5 0.3-1.3zm7.6 0l5.2-13.3h1.9l5.4 13.3h-2l-1.5-4h-5.6l-1.5 4zm3.9-5.5h4.5l-1.4-3.7q-0.6-1.7-0.9-2.7-0.3 1.2-0.8 2.5zm9.9 9.2v-13.4h1.5v1.3q0.5-0.8 1.2-1.1 0.6-0.4 1.6-0.4 1.2 0 2.2 0.6 0.9 0.7 1.4 1.8 0.5 1.2 0.5 2.6 0 1.5-0.6 2.7-0.5 1.1-1.5 1.8-1 0.6-2.1 0.6-0.9 0-1.5-0.3-0.7-0.4-1.1-0.9v4.7zm1.5-8.5q0 1.9 0.8 2.8 0.7 0.9 1.8 0.9 1.1 0 1.9-1 0.7-0.9 0.7-2.8 0-1.9-0.7-2.8-0.8-0.9-1.8-0.9-1.1 0-1.9 1-0.8 0.9-0.8 2.8zm8.9 8.5v-13.4h1.5v1.3q0.5-0.8 1.2-1.1 0.7-0.4 1.6-0.4 1.2 0 2.2 0.6 0.9 0.7 1.4 1.8 0.5 1.2 0.5 2.6 0 1.5-0.5 2.7-0.6 1.1-1.6 1.8-1 0.6-2.1 0.6-0.8 0-1.5-0.3-0.6-0.4-1.1-0.9v4.7zm1.5-8.5q0 1.9 0.8 2.8 0.7 0.9 1.8 0.9 1.1 0 1.9-1 0.8-0.9 0.8-2.8 0-1.9-0.8-2.8-0.7-0.9-1.8-0.9-1.1 0-1.9 1-0.8 0.9-0.8 2.8zm9.3 4.8v-1.9h1.9v1.9q0 1-0.4 1.7-0.3 0.6-1.1 0.9l-0.5-0.7q0.6-0.2 0.8-0.6 0.3-0.5 0.3-1.3z"/>
			<path id="Layer" fill-rule="evenodd" class="s4" d="m640.6 128v-13.3h4.6q1.5 0 2.3 0.2 1.2 0.2 2 0.9 1.1 0.9 1.6 2.3 0.5 1.4 0.5 3.2 0 1.5-0.4 2.7-0.3 1.1-0.9 1.9-0.5 0.8-1.2 1.2-0.6 0.5-1.6 0.7-0.9 0.2-2.1 0.2zm1.7-1.6h2.9q1.3 0 2.1-0.2 0.7-0.2 1.2-0.7 0.6-0.6 0.9-1.7 0.4-1 0.4-2.6 0-2.1-0.7-3.2-0.7-1.1-1.7-1.5-0.7-0.3-2.2-0.3h-2.9zm11.7 1.6v-13.3h5q1.5 0 2.4 0.4 1 0.4 1.5 1.2 0.5 0.9 0.5 1.8 0 0.8-0.5 1.6-0.4 0.8-1.3 1.2 1.2 0.4 1.8 1.2 0.7 0.9 0.7 2 0 1-0.4 1.8-0.4 0.8-1 1.2-0.6 0.5-1.5 0.7-0.8 0.2-2.1 0.2zm1.8-7.7h2.8q1.2 0 1.7-0.2 0.7-0.2 1-0.6 0.4-0.5 0.4-1.2 0-0.7-0.4-1.2-0.3-0.5-0.9-0.7-0.6-0.2-2-0.2h-2.6zm0 6.2h3.3q0.8 0 1.2-0.1 0.6-0.1 1-0.3 0.4-0.3 0.7-0.8 0.2-0.4 0.2-1.1 0-0.7-0.4-1.3-0.3-0.5-1-0.8-0.7-0.2-2-0.2h-3z"/>
			<path id="Layer" class="s0" d="m534.2-0.6h147.6v42h-147.6z"/>
			<path id="Layer" fill-rule="evenodd" class="s4" d="m556.5 26.3v-5.6l-4.9-7.8h3.2l3.1 5.3 3.1-5.3h3.1l-4.9 7.8v5.6zm7-5q0-1.3 0.6-2.4 0.6-1.2 1.8-1.9 1.1-0.6 2.5-0.6 2.2 0 3.6 1.4 1.4 1.5 1.4 3.6 0 2.2-1.4 3.7-1.4 1.4-3.5 1.4-1.4 0-2.6-0.6-1.2-0.6-1.8-1.7-0.6-1.2-0.6-2.9zm2.6 0.2q0 1.4 0.7 2.2 0.6 0.7 1.6 0.7 1 0 1.7-0.7 0.7-0.8 0.7-2.3 0-1.4-0.7-2.1-0.7-0.8-1.7-0.8-1 0-1.6 0.8-0.7 0.7-0.7 2.2zm15.7 4.8v-1.5q-0.5 0.8-1.4 1.3-0.8 0.4-1.8 0.4-1 0-1.7-0.4-0.8-0.4-1.2-1.2-0.3-0.8-0.3-2.1v-6.2h2.6v4.5q0 2 0.1 2.5 0.1 0.4 0.5 0.7 0.4 0.3 1 0.3 0.6 0 1.1-0.4 0.5-0.4 0.7-0.9 0.2-0.5 0.2-2.6v-4.1h2.6v9.7zm7.5 0h-2.6v-9.7h2.4v1.4q0.6-1 1.1-1.3 0.5-0.3 1.1-0.3 0.9 0 1.7 0.5l-0.8 2.2q-0.7-0.4-1.2-0.4-0.6 0-0.9 0.3-0.4 0.3-0.6 1.1-0.2 0.7-0.2 3.2zm9.3-4.3l2.6-0.3q0.3 1.3 1 2 0.7 0.6 1.9 0.6 1.3 0 2-0.6 0.7-0.5 0.7-1.3 0-0.4-0.3-0.8-0.3-0.3-1-0.6-0.5-0.1-2.2-0.5-2.1-0.6-3-1.4-1.2-1.1-1.2-2.6 0-1.1 0.6-2 0.5-0.8 1.6-1.3 1.1-0.5 2.7-0.5 2.5 0 3.7 1.1 1.3 1.1 1.4 3l-2.7 0.1q-0.2-1-0.8-1.5-0.5-0.4-1.7-0.4-1.1 0-1.8 0.4-0.4 0.4-0.4 0.9 0 0.5 0.4 0.8 0.5 0.4 2.4 0.9 2 0.4 2.9 0.9 1 0.5 1.5 1.4 0.6 0.9 0.6 2.1 0 1.2-0.7 2.2-0.6 1-1.8 1.5-1.2 0.4-2.9 0.4-2.5 0-3.9-1.1-1.3-1.2-1.6-3.4zm11.9-5.4h2.7l2.3 6.9 2.3-6.9h2.6l-3.4 9.4-0.6 1.6q-0.3 0.9-0.6 1.3-0.3 0.5-0.7 0.7-0.4 0.3-1 0.5-0.6 0.1-1.3 0.1-0.7 0-1.5-0.1l-0.2-2q0.6 0.1 1.1 0.1 0.9 0 1.3-0.5 0.4-0.5 0.7-1.4zm10.7 7l2.5-0.4q0.2 0.7 0.7 1.1 0.5 0.4 1.4 0.4 1 0 1.5-0.4 0.3-0.2 0.3-0.7 0-0.3-0.2-0.4-0.1-0.2-0.8-0.4-3.1-0.7-3.9-1.2-1.2-0.8-1.2-2.2 0-1.3 1-2.1 1-0.9 3.1-0.9 2 0 2.9 0.7 1 0.6 1.4 1.9l-2.4 0.4q-0.2-0.5-0.6-0.8-0.5-0.3-1.3-0.3-1 0-1.4 0.3-0.3 0.2-0.3 0.5 0 0.2 0.3 0.4 0.3 0.3 2.3 0.8 2.1 0.4 2.9 1.1 0.8 0.7 0.8 1.9 0 1.3-1.1 2.3-1.1 0.9-3.3 0.9-2 0-3.1-0.8-1.2-0.8-1.5-2.1zm15.7-7v2.1h-1.8v3.9q0 1.2 0.1 1.4 0 0.2 0.2 0.3 0.2 0.1 0.4 0.1 0.4 0 1.1-0.2l0.2 2q-0.9 0.3-2 0.3-0.7 0-1.3-0.2-0.5-0.2-0.8-0.6-0.3-0.4-0.3-1-0.1-0.4-0.1-1.8v-4.2h-1.2v-2.1h1.2v-1.9l2.5-1.5v3.4zm7.4 6.6l2.6 0.5q-0.5 1.4-1.6 2.1-1.1 0.7-2.7 0.7-2.5 0-3.7-1.6-0.9-1.3-0.9-3.3 0-2.5 1.2-3.8 1.3-1.4 3.2-1.4 2.2 0 3.4 1.4 1.3 1.5 1.2 4.4h-6.4q0 1.2 0.6 1.8 0.6 0.6 1.5 0.6 0.6 0 1-0.3 0.4-0.3 0.6-1.1zm0.2-2.6q-0.1-1.1-0.6-1.6-0.6-0.6-1.3-0.6-0.9 0-1.4 0.6-0.6 0.6-0.6 1.6zm4.5-4h2.3v1.4q1.3-1.6 3-1.6 1 0 1.6 0.4 0.7 0.4 1.2 1.2 0.6-0.8 1.3-1.2 0.8-0.4 1.6-0.4 1.1 0 1.8 0.5 0.8 0.4 1.1 1.2 0.3 0.7 0.3 2v6.2h-2.6v-5.5q0-1.5-0.2-1.9-0.4-0.5-1.1-0.5-0.6 0-1 0.3-0.5 0.3-0.7 1-0.2 0.6-0.2 2v4.6h-2.6v-5.3q0-1.4-0.1-1.8-0.2-0.4-0.4-0.6-0.3-0.2-0.8-0.2-0.6 0-1.1 0.3-0.5 0.3-0.7 0.9-0.2 0.6-0.2 2v4.7h-2.5z"/>
			<path id="Layer" fill-rule="evenodd" class="s7" d="m258.2 41h182v353.6h-182z"/>
			<path id="Layer" class="s8" d="m258.2 41h182v353.6h-182z"/>
			<path id="Layer" fill-rule="evenodd" class="s3" d="m289.9 81.3h118.6v79h-118.6z"/>
			<path id="Layer" class="s8" d="m289.9 81.3h118.6v79h-118.6z"/>
			<path id="Layer" fill-rule="evenodd" class="s4" d="m317.9 123.5l1.7-0.2q0.1 1 0.5 1.7 0.4 0.6 1.4 1 0.9 0.4 2 0.4 1 0 1.8-0.3 0.8-0.3 1.2-0.8 0.3-0.6 0.3-1.2 0-0.6-0.3-1.1-0.4-0.4-1.2-0.8-0.6-0.2-2.4-0.6-1.9-0.5-2.6-0.9-1-0.5-1.4-1.2-0.5-0.7-0.5-1.7 0-1 0.6-1.8 0.6-0.9 1.7-1.4 1.1-0.4 2.4-0.4 1.5 0 2.6 0.5 1.2 0.4 1.8 1.4 0.6 0.9 0.6 2.1l-1.7 0.1q-0.1-1.3-0.9-1.9-0.8-0.7-2.3-0.7-1.6 0-2.4 0.6-0.7 0.6-0.7 1.4 0 0.8 0.5 1.2 0.5 0.5 2.7 1 2.2 0.5 2.9 0.8 1.2 0.5 1.8 1.4 0.5 0.8 0.5 1.9 0 1-0.6 2-0.6 0.9-1.7 1.5-1.2 0.5-2.6 0.5-1.8 0-3.1-0.5-1.2-0.6-1.9-1.6-0.7-1.1-0.7-2.4zm19.5 1.1l1.7 0.2q-0.5 1.5-1.5 2.4-1.1 0.8-2.8 0.8-2.1 0-3.4-1.3-1.2-1.3-1.2-3.7 0-2.5 1.2-3.8 1.3-1.3 3.3-1.3 1.9 0 3.2 1.3 1.2 1.3 1.2 3.7 0 0.1 0 0.4h-7.2q0.1 1.6 0.9 2.5 0.8 0.8 2 0.8 0.9 0 1.5-0.4 0.7-0.5 1.1-1.6zm-5.4-2.6h5.4q-0.1-1.2-0.6-1.8-0.8-1-2.1-1-1.1 0-1.9 0.8-0.7 0.7-0.8 2zm9.1 5.7v-9.6h1.5v1.4q0.5-1 1-1.3 0.5-0.3 1.1-0.3 0.8 0 1.6 0.5l-0.5 1.5q-0.6-0.4-1.2-0.4-0.6 0-1 0.4-0.4 0.3-0.6 0.9-0.3 0.8-0.3 1.9v5zm8.9 0l-3.6-9.6h1.7l2.1 5.8q0.3 0.9 0.6 1.9 0.2-0.8 0.6-1.8l2.1-5.9h1.7l-3.6 9.6zm13.2-3.1l1.7 0.2q-0.4 1.5-1.5 2.4-1 0.8-2.7 0.8-2.2 0-3.4-1.3-1.2-1.3-1.2-3.7 0-2.5 1.2-3.8 1.3-1.3 3.3-1.3 1.9 0 3.1 1.3 1.3 1.3 1.3 3.7 0 0.1 0 0.4h-7.2q0 1.6 0.9 2.5 0.8 0.8 2 0.8 0.9 0 1.5-0.4 0.7-0.5 1-1.6zm-5.4-2.6h5.5q-0.2-1.2-0.7-1.8-0.8-1-2-1-1.1 0-1.9 0.8-0.8 0.7-0.9 2zm9.2 5.7v-9.6h1.4v1.4q0.6-1 1.1-1.3 0.5-0.3 1-0.3 0.9 0 1.7 0.5l-0.5 1.5q-0.6-0.4-1.2-0.4-0.6 0-1 0.4-0.4 0.3-0.6 0.9-0.3 0.8-0.3 1.9v5zm5.6-2.8l1.6-0.3q0.1 1 0.7 1.5 0.7 0.5 1.8 0.5 1.1 0 1.7-0.4 0.5-0.5 0.5-1.1 0-0.6-0.5-0.9-0.3-0.2-1.6-0.5-1.9-0.5-2.6-0.8-0.6-0.4-1-0.9-0.4-0.6-0.4-1.4 0-0.6 0.3-1.1 0.3-0.6 0.8-1 0.4-0.3 1.1-0.4 0.6-0.2 1.4-0.2 1.1 0 2 0.3 0.9 0.3 1.3 0.9 0.4 0.5 0.5 1.5l-1.6 0.2q-0.1-0.8-0.6-1.2-0.5-0.4-1.5-0.4-1.1 0-1.6 0.4-0.5 0.4-0.5 0.9 0 0.3 0.2 0.5 0.2 0.3 0.7 0.5 0.2 0.1 1.4 0.4 1.7 0.4 2.4 0.7 0.7 0.3 1.1 0.9 0.4 0.6 0.4 1.4 0 0.8-0.5 1.6-0.5 0.7-1.4 1.1-0.9 0.4-2 0.4-1.9 0-2.9-0.8-1-0.8-1.2-2.3z"/>
			<path id="Layer" fill-rule="evenodd" class="s3" d="m287.7 249.3c0 8.1 27.5 14.6 61.5 14.6 34 0 61.5-6.5 61.5-14.6v87.5c0 8-27.5 14.6-61.5 14.6-34 0-61.5-6.6-61.5-14.6z"/>
			<path id="Layer" fill-rule="evenodd" class="s3" d="m287.7 249.3c0-8 27.5-14.5 61.5-14.5 34 0 61.5 6.5 61.5 14.5 0 8.1-27.5 14.6-61.5 14.6-34 0-61.5-6.5-61.5-14.6z"/>
			<path id="Layer" class="s0" d="m410.7 249.3c0 8.1-27.5 14.6-61.5 14.6-34 0-61.5-6.5-61.5-14.6 0-8 27.5-14.5 61.5-14.5 34 0 61.5 6.5 61.5 14.5v87.5c0 8-27.5 14.6-61.5 14.6-34 0-61.5-6.6-61.5-14.6v-87.5"/>
			<path id="Layer" class="s8" d="m410.7 249.3c0 8.1-27.5 14.6-61.5 14.6-34 0-61.5-6.5-61.5-14.6 0-8 27.5-14.5 61.5-14.5 34 0 61.5 6.5 61.5 14.5v87.5c0 8-27.5 14.6-61.5 14.6-34 0-61.5-6.6-61.5-14.6v-87.5"/>
			<path id="Layer" fill-rule="evenodd" class="s4" d="m310.7 296.3v-13.4h4.6q1.6 0 2.4 0.2 1.1 0.3 1.9 1 1.1 0.9 1.6 2.2 0.6 1.4 0.6 3.2 0 1.5-0.4 2.7-0.4 1.2-0.9 2-0.6 0.7-1.2 1.2-0.7 0.4-1.6 0.7-1 0.2-2.2 0.2zm1.8-1.6h2.9q1.3 0 2-0.2 0.8-0.3 1.2-0.7 0.6-0.7 1-1.7 0.4-1.1 0.4-2.6 0-2.1-0.7-3.2-0.7-1.2-1.7-1.5-0.7-0.3-2.3-0.3h-2.8zm17.8 0.4q-0.9 0.7-1.7 1.1-0.9 0.3-1.8 0.3-1.6 0-2.5-0.8-0.9-0.8-0.9-2 0-0.7 0.4-1.3 0.3-0.6 0.8-0.9 0.5-0.4 1.2-0.6 0.5-0.1 1.5-0.2 1.9-0.2 2.9-0.6 0-0.3 0-0.4 0-1-0.5-1.4-0.6-0.6-1.9-0.6-1.1 0-1.7 0.4-0.5 0.4-0.8 1.5l-1.6-0.3q0.2-1 0.7-1.6 0.5-0.6 1.5-1 0.9-0.3 2.2-0.3 1.2 0 2 0.3 0.8 0.3 1.1 0.7 0.4 0.4 0.6 1.1 0 0.4 0 1.5v2.2q0 2.3 0.1 2.9 0.2 0.6 0.4 1.2h-1.7q-0.2-0.5-0.3-1.2zm-0.1-3.7q-0.9 0.4-2.7 0.6-1 0.2-1.4 0.4-0.5 0.1-0.7 0.5-0.2 0.3-0.2 0.8 0 0.6 0.5 1.1 0.5 0.4 1.4 0.4 1 0 1.7-0.4 0.8-0.4 1.1-1.1 0.3-0.6 0.3-1.7zm7.8 3.4l0.2 1.5q-0.7 0.1-1.2 0.1-0.9 0-1.4-0.3-0.5-0.3-0.7-0.7-0.2-0.5-0.2-2v-5.5h-1.2v-1.3h1.2v-2.4l1.6-1v3.4h1.7v1.3h-1.7v5.6q0 0.7 0.1 0.9 0.1 0.2 0.3 0.4 0.2 0.1 0.5 0.1 0.3 0 0.8-0.1zm7.9 0.3q-0.9 0.8-1.8 1.1-0.8 0.3-1.8 0.3-1.6 0-2.4-0.8-0.9-0.8-0.9-2 0-0.7 0.3-1.3 0.4-0.6 0.9-0.9 0.5-0.4 1.2-0.6 0.4-0.1 1.4-0.2 2-0.2 2.9-0.6 0-0.3 0-0.4 0-1-0.4-1.4-0.6-0.6-1.9-0.6-1.2 0-1.7 0.5-0.5 0.4-0.8 1.4l-1.6-0.2q0.2-1.1 0.7-1.7 0.5-0.6 1.5-1 0.9-0.3 2.1-0.3 1.3 0 2.1 0.3 0.7 0.3 1.1 0.7 0.4 0.5 0.5 1.1 0.1 0.4 0.1 1.5v2.2q0 2.3 0.1 2.9 0.1 0.6 0.4 1.2h-1.7q-0.3-0.5-0.3-1.2zm-0.2-3.7q-0.9 0.4-2.6 0.6-1.1 0.2-1.5 0.4-0.4 0.2-0.6 0.5-0.3 0.3-0.3 0.8 0 0.6 0.5 1.1 0.5 0.4 1.5 0.4 0.9 0 1.7-0.4 0.7-0.4 1.1-1.1 0.2-0.6 0.2-1.7zm5.7 4.9h-1.5v-13.4h1.7v4.8q1-1.3 2.6-1.3 0.9 0 1.7 0.4 0.8 0.3 1.3 1 0.5 0.6 0.8 1.5 0.3 1 0.3 2 0 2.5-1.2 3.8-1.2 1.4-3 1.4-1.7 0-2.7-1.4zm0-4.9q0 1.7 0.5 2.5 0.8 1.2 2.1 1.2 1.1 0 1.9-0.9 0.7-0.9 0.7-2.8 0-1.9-0.7-2.8-0.8-0.9-1.8-0.9-1.1 0-1.9 1-0.8 0.9-0.8 2.7zm15.2 3.7q-0.9 0.7-1.7 1.1-0.9 0.3-1.8 0.3-1.6 0-2.5-0.8-0.8-0.8-0.8-2 0-0.7 0.3-1.3 0.3-0.6 0.8-0.9 0.6-0.4 1.2-0.6 0.5-0.1 1.5-0.2 1.9-0.2 2.9-0.6 0-0.3 0-0.4 0-1-0.5-1.4-0.6-0.6-1.8-0.6-1.2 0-1.7 0.4-0.6 0.4-0.9 1.5l-1.6-0.3q0.3-1 0.8-1.6 0.5-0.6 1.4-1 1-0.3 2.2-0.3 1.2 0 2 0.3 0.8 0.3 1.1 0.7 0.4 0.4 0.6 1.1 0 0.4 0 1.5v2.2q0 2.3 0.2 2.9 0.1 0.6 0.4 1.2h-1.7q-0.3-0.5-0.4-1.2zm-0.1-3.7q-0.9 0.4-2.7 0.6-1 0.2-1.4 0.4-0.4 0.1-0.7 0.5-0.2 0.3-0.2 0.8 0 0.6 0.5 1.1 0.5 0.4 1.5 0.4 0.9 0 1.6-0.4 0.8-0.4 1.1-1.1 0.3-0.6 0.3-1.7zm3.5 2l1.7-0.3q0.1 1 0.7 1.5 0.6 0.6 1.8 0.6 1.1 0 1.6-0.5 0.6-0.5 0.6-1.1 0-0.5-0.5-0.9-0.3-0.2-1.7-0.5-1.8-0.5-2.5-0.8-0.7-0.3-1-0.9-0.4-0.6-0.4-1.3 0-0.7 0.3-1.2 0.3-0.6 0.8-0.9 0.4-0.3 1-0.5 0.7-0.2 1.5-0.2 1.1 0 2 0.3 0.8 0.3 1.2 0.9 0.4 0.6 0.6 1.5l-1.6 0.2q-0.1-0.7-0.6-1.1-0.6-0.5-1.5-0.5-1.2 0-1.6 0.4-0.5 0.4-0.5 0.9 0 0.3 0.2 0.6 0.2 0.2 0.6 0.4 0.3 0.1 1.5 0.4 1.7 0.5 2.4 0.8 0.7 0.3 1.1 0.8 0.4 0.6 0.4 1.4 0 0.9-0.5 1.6-0.5 0.7-1.4 1.1-0.9 0.4-2 0.4-1.9 0-2.9-0.8-1-0.8-1.3-2.3zm16.6-0.2l1.7 0.2q-0.4 1.5-1.5 2.3-1 0.8-2.7 0.8-2.1 0-3.4-1.3-1.2-1.3-1.2-3.7 0-2.4 1.2-3.8 1.3-1.3 3.3-1.3 1.9 0 3.1 1.3 1.3 1.3 1.3 3.7 0 0.2 0 0.5h-7.2q0.1 1.5 0.9 2.4 0.8 0.9 2 0.9 0.9 0 1.5-0.5 0.7-0.5 1-1.5zm-5.3-2.7h5.4q-0.2-1.2-0.7-1.8-0.7-1-2-1-1.1 0-1.9 0.8-0.8 0.7-0.8 2z"/>
			<path id="Layer" fill-rule="evenodd" class="s4" d="m312.4 322.2q-1.3-1.7-2.3-4-0.9-2.3-0.9-4.8 0-2.1 0.7-4.1 0.8-2.3 2.5-4.6h1.2q-1.1 1.9-1.4 2.7-0.6 1.2-0.9 2.6-0.4 1.7-0.4 3.4 0 4.4 2.7 8.8zm1.8-3.9l5.2-13.4h1.9l5.4 13.4h-2l-1.5-4.1h-5.6l-1.5 4.1zm3.9-5.5h4.5l-1.4-3.7q-0.6-1.7-0.9-2.8-0.3 1.3-0.8 2.6zm11.7 5.4l-3.5-13.3h1.8l2 8.8q0.4 1.3 0.6 2.7 0.5-2.2 0.6-2.5l2.5-9h2.2l1.9 6.8q0.7 2.5 1 4.7 0.3-1.3 0.7-2.9l2.1-8.6h1.8l-3.7 13.3h-1.7l-2.8-10.1q-0.4-1.3-0.4-1.6-0.2 0.9-0.4 1.6l-2.9 10.1zm14.7-4.2l1.7-0.2q0.1 1 0.5 1.7 0.5 0.6 1.4 1 0.9 0.4 2 0.4 1 0 1.8-0.3 0.8-0.3 1.2-0.8 0.3-0.6 0.3-1.2 0-0.6-0.3-1.1-0.4-0.4-1.2-0.8-0.6-0.2-2.4-0.6-1.8-0.5-2.6-0.9-0.9-0.5-1.4-1.2-0.5-0.7-0.5-1.7 0-1 0.6-1.8 0.6-0.9 1.7-1.4 1.1-0.4 2.4-0.4 1.5 0 2.6 0.5 1.2 0.4 1.8 1.4 0.6 0.9 0.6 2.1l-1.6 0.1q-0.2-1.3-1-1.9-0.8-0.7-2.3-0.7-1.6 0-2.3 0.6-0.8 0.6-0.8 1.4 0 0.8 0.6 1.2 0.5 0.5 2.6 1 2.2 0.5 3 0.8 1.1 0.5 1.7 1.4 0.6 0.8 0.6 1.9 0 1-0.7 2-0.6 0.9-1.7 1.5-1.1 0.5-2.6 0.5-1.8 0-3-0.5-1.3-0.6-2-1.6-0.6-1.1-0.7-2.4zm17.7 0l1.6-0.2q0.1 1 0.6 1.7 0.4 0.6 1.3 1 0.9 0.4 2.1 0.4 1 0 1.7-0.3 0.8-0.3 1.2-0.8 0.4-0.6 0.4-1.2 0-0.6-0.4-1.1-0.4-0.4-1.2-0.8-0.5-0.2-2.4-0.6-1.8-0.5-2.5-0.9-1-0.5-1.5-1.2-0.4-0.7-0.4-1.7 0-1 0.5-1.8 0.6-0.9 1.7-1.4 1.1-0.4 2.5-0.4 1.4 0 2.6 0.5 1.1 0.4 1.7 1.4 0.6 0.9 0.7 2.1l-1.7 0.1q-0.2-1.3-1-1.9-0.7-0.7-2.3-0.7-1.6 0-2.3 0.6-0.7 0.6-0.7 1.4 0 0.8 0.5 1.2 0.5 0.5 2.6 1 2.2 0.5 3 0.8 1.2 0.5 1.7 1.4 0.6 0.8 0.6 1.9 0 1-0.6 2-0.6 0.9-1.8 1.5-1.1 0.5-2.6 0.5-1.8 0-3-0.5-1.2-0.6-1.9-1.6-0.7-1.1-0.7-2.4zm12.3 0.7l1.7-0.2q0.3 1.4 0.9 2 0.7 0.6 1.7 0.6 1.1 0 1.9-0.8 0.8-0.8 0.8-2 0-1.1-0.7-1.8-0.7-0.8-1.9-0.8-0.4 0-1.1 0.2l0.2-1.4q0.1 0 0.2 0 1.1 0 1.9-0.5 0.8-0.6 0.8-1.7 0-0.9-0.6-1.5-0.6-0.6-1.5-0.6-1 0-1.6 0.6-0.7 0.6-0.9 1.8l-1.6-0.3q0.3-1.6 1.4-2.6 1-0.9 2.6-0.9 1.1 0 2 0.5 0.9 0.5 1.4 1.3 0.5 0.8 0.5 1.7 0 0.9-0.4 1.6-0.5 0.7-1.4 1.1 1.2 0.3 1.8 1.2 0.7 0.8 0.7 2.1 0 1.7-1.3 3-1.3 1.2-3.2 1.2-1.8 0-2.9-1.1-1.2-1-1.4-2.7zm11.9 7.5h-1.1q2.7-4.4 2.7-8.8 0-1.7-0.4-3.4-0.3-1.3-0.9-2.6-0.3-0.8-1.4-2.7h1.1q1.7 2.3 2.6 4.6 0.7 1.9 0.7 4.1 0 2.5-1 4.8-0.9 2.3-2.3 4z"/>
			<path id="Layer" class="s0" d="m297.6-0.6h103.2v42h-103.2z"/>
			<path id="Layer" fill-rule="evenodd" class="s4" d="m323.3 21.4l2.7 0.8q-0.6 2.2-2 3.3-1.4 1-3.6 1-2.7 0-4.4-1.8-1.7-1.8-1.7-5 0-3.3 1.7-5.1 1.8-1.9 4.6-1.9 2.4 0 3.9 1.5 1 0.8 1.4 2.4l-2.7 0.7q-0.2-1.1-0.9-1.7-0.8-0.6-1.9-0.6-1.4 0-2.4 1.1-0.9 1.1-0.9 3.4 0 2.6 0.9 3.6 0.9 1.1 2.4 1.1 1.1 0 1.8-0.7 0.8-0.6 1.1-2.1zm4.3 0.6l2.6-0.3q0.2 1.3 1 1.9 0.7 0.7 1.9 0.7 1.3 0 2-0.6 0.7-0.5 0.7-1.3 0-0.5-0.3-0.8-0.3-0.3-1-0.6-0.5-0.1-2.2-0.5-2.1-0.6-3-1.4-1.2-1.1-1.2-2.7 0-1 0.5-1.9 0.6-0.9 1.7-1.3 1.1-0.5 2.6-0.5 2.6 0 3.8 1.1 1.3 1.1 1.4 3l-2.7 0.1q-0.2-1.1-0.8-1.5-0.6-0.4-1.7-0.4-1.2 0-1.8 0.4-0.5 0.3-0.5 0.9 0 0.4 0.4 0.8 0.5 0.4 2.5 0.9 2 0.4 2.9 0.9 1 0.5 1.5 1.4 0.5 0.8 0.5 2.1 0 1.2-0.6 2.2-0.6 1-1.8 1.4-1.2 0.5-2.9 0.5-2.5 0-3.9-1.1-1.4-1.2-1.6-3.4zm16.5 4.3l-4.8-13.4h3l3.3 9.9 3.3-9.9h2.9l-4.8 13.4zm8.9 0v-13.4h2.6v4.9q1.1-1.4 2.8-1.4 1.7 0 2.9 1.3 1.1 1.3 1.1 3.7 0 2.4-1.1 3.8-1.2 1.3-2.9 1.3-0.8 0-1.6-0.4-0.8-0.4-1.4-1.2v1.4zm2.5-5q0 1.5 0.5 2.2 0.7 1 1.8 1 0.8 0 1.4-0.7 0.6-0.8 0.6-2.3 0-1.7-0.6-2.4-0.6-0.7-1.5-0.7-1 0-1.6 0.7-0.6 0.7-0.6 2.2zm8.4 0q0-1.3 0.6-2.4 0.6-1.2 1.8-1.9 1.2-0.6 2.6-0.6 2.2 0 3.6 1.4 1.4 1.5 1.4 3.6 0 2.2-1.4 3.7-1.5 1.4-3.6 1.4-1.3 0-2.6-0.6-1.2-0.6-1.8-1.7-0.6-1.2-0.6-2.9zm2.6 0.2q0 1.4 0.7 2.2 0.7 0.7 1.7 0.7 1 0 1.6-0.7 0.7-0.8 0.7-2.3 0-1.4-0.7-2.1-0.6-0.8-1.6-0.8-1 0-1.7 0.8-0.7 0.7-0.7 2.2zm8.1 4.8l3.5-5-3.3-4.7h3.1l1.7 2.7 1.8-2.7h3l-3.2 4.6 3.5 5.1h-3.1l-2-3-2 3z"/>
			<path id="Layer" class="s0" d="m175.6 120.8h114.3"/>
			<path id="Layer" class="s9" d="m175.6 120.8h96.3"/>
			<path id="Layer" fill-rule="evenodd" class="s10" d="m271.9 125.8l13.6-5-13.6-4.9z"/>
			<path id="Layer" class="s0" d="m408.5 120.8l129.4 0.3"/>
			<path id="Layer" class="s9" d="m408.5 120.8l111.4 0.3"/>
			<path id="Layer" fill-rule="evenodd" class="s10" d="m519.9 126l13.6-4.9-13.6-5z"/>
			<path id="Layer" class="s0" d="m258.7 167.2h181.9v64.7h-181.9z"/>
			<path id="Layer" class="s12" d="m341.2 200.6l6.2-9.5-5.6-8.7h4.2l3.7 5.8 3.5-5.8h4.3l-5.7 8.8 6.2 9.4h-4.4l-4-6.3-4 6.3z"/>
			<path id="Layer" fill-rule="evenodd" class="s4" d="m332.5 218.2h-1.7v-3.2q0-1-0.1-1.3-0.1-0.3-0.3-0.5-0.3-0.2-0.6-0.2-0.4 0-0.8 0.3-0.3 0.2-0.4 0.6-0.1 0.4-0.1 1.4v2.9h-1.7v-6.3h1.5v0.9q0.8-1 2.1-1 0.5 0 1 0.2 0.4 0.2 0.7 0.5 0.2 0.3 0.3 0.7 0.1 0.4 0.1 1.1zm1.3-3.2q0-0.8 0.4-1.6 0.4-0.8 1.1-1.2 0.8-0.4 1.7-0.4 1.4 0 2.3 0.9 0.9 0.9 0.9 2.4 0 1.4-0.9 2.3-0.9 0.9-2.3 0.9-0.9 0-1.7-0.4-0.7-0.4-1.1-1.1-0.4-0.7-0.4-1.8zm1.7 0.1q0 0.9 0.4 1.4 0.4 0.5 1.1 0.5 0.6 0 1.1-0.5 0.4-0.5 0.4-1.4 0-1-0.4-1.4-0.5-0.5-1.1-0.5-0.7 0-1.1 0.5-0.4 0.4-0.4 1.4zm8.7 1.3l1.7-0.3q0.1 0.5 0.4 0.8 0.3 0.2 0.9 0.2 0.7 0 1-0.2 0.2-0.2 0.2-0.4 0-0.2-0.1-0.4-0.1-0.1-0.6-0.2-2-0.4-2.5-0.8-0.7-0.5-0.7-1.4 0-0.8 0.6-1.3 0.6-0.6 2-0.6 1.3 0 1.9 0.4 0.6 0.4 0.8 1.3l-1.5 0.2q-0.1-0.3-0.4-0.5-0.3-0.2-0.8-0.2-0.6 0-0.9 0.2-0.2 0.1-0.2 0.3 0 0.2 0.2 0.3 0.2 0.2 1.5 0.5 1.3 0.3 1.8 0.7 0.5 0.4 0.5 1.2 0 0.9-0.7 1.5-0.7 0.6-2.1 0.6-1.3 0-2-0.5-0.7-0.5-1-1.4zm10.1-4.4v1.3h-1.1v2.5q0 0.7 0 0.9 0.1 0.1 0.2 0.2 0.1 0.1 0.3 0.1 0.2 0 0.6-0.2l0.2 1.3q-0.6 0.2-1.3 0.2-0.5 0-0.8-0.1-0.4-0.2-0.6-0.4-0.1-0.3-0.2-0.7 0-0.2 0-1.1v-2.7h-0.8v-1.3h0.8v-1.3l1.6-0.9v2.2zm0.8 3q0-0.8 0.4-1.6 0.4-0.8 1.1-1.2 0.8-0.4 1.7-0.4 1.4 0 2.3 0.9 0.9 0.9 0.9 2.4 0 1.4-0.9 2.3-0.9 0.9-2.3 0.9-0.9 0-1.6-0.4-0.8-0.4-1.2-1.1-0.4-0.7-0.4-1.8zm1.7 0.1q0 0.9 0.4 1.4 0.4 0.5 1.1 0.5 0.6 0 1.1-0.5 0.4-0.5 0.4-1.4 0-1-0.4-1.4-0.5-0.5-1.1-0.5-0.7 0-1.1 0.5-0.4 0.4-0.4 1.4zm7.6 3.1h-1.7v-6.2h1.6v0.8q0.3-0.6 0.7-0.8 0.3-0.2 0.7-0.2 0.5 0 1.1 0.3l-0.6 1.5q-0.4-0.3-0.7-0.3-0.4 0-0.6 0.2-0.3 0.2-0.4 0.7-0.1 0.5-0.1 2.1zm6.7-2l1.6 0.3q-0.3 0.9-1 1.3-0.7 0.5-1.7 0.5-1.6 0-2.4-1.1-0.6-0.8-0.6-2.1 0-1.6 0.8-2.4 0.8-0.9 2-0.9 1.4 0 2.2 0.9 0.8 0.9 0.8 2.8h-4.1q0 0.8 0.4 1.2 0.3 0.4 0.9 0.4 0.4 0 0.7-0.2 0.2-0.3 0.4-0.7zm0.1-1.7q-0.1-0.7-0.4-1.1-0.4-0.4-0.9-0.4-0.5 0-0.9 0.4-0.3 0.4-0.3 1.1z"/>
			<path id="Layer" fill-rule="evenodd" class="s1" d="m30.5 593h181.9v173h-181.9z"/>
			<path id="Layer" class="s2" d="m30.5 593h181.9v173h-181.9z"/>
			<path id="Layer" fill-rule="evenodd" class="s3" d="m51.4 644.9h9.9 110.8v49.7q0 0 0 0c0 0 4.5-0.4 9.1-0.4v-7c0 0 5.2-0.3 10.4-0.3v-56.3h-120.9v7.1h110.5-119.9v7.2h110.8v56.2c-60.4 0-60.4 21.6-120.7 10.8z"/>
			<path id="Layer" class="s0" d="m51.4 644.9h120.7v56.2c-60.4 0-60.4 21.6-120.7 10.8zm9.9 0v-7.3h119.9v56.5c-4.6 0-9.1 0.4-9.1 0.4m-101.4-56.9v-7.1h120.9v56.3c-5.2 0-10.4 0.3-10.4 0.3"/>
			<path id="Layer" class="s0" d="m51.4 711.9c60.3 10.8 60.3-10.8 120.7-10.8v-6.5c0 0 4.5-0.4 9.1-0.4v-7c0 0 5.2-0.3 10.4-0.3v-56.3h-120.9v7.1h-9.4v7.2h-9.9z"/>
			<path id="Layer" class="s2" d="m51.4 644.9h120.7v56.2c-60.4 0-60.4 21.6-120.7 10.8zm9.9 0v-7.3h119.9v56.5c-4.6 0-9.1 0.4-9.1 0.4m-101.4-56.9v-7.1h120.9v56.3c-5.2 0-10.4 0.3-10.4 0.3"/>
			<path id="Layer" fill-rule="evenodd" class="s4" d="m71.3 680.7l1.8 0.4q-0.6 2.2-2 3.3-1.4 1.2-3.5 1.2-2.2 0-3.5-0.9-1.4-0.9-2.1-2.5-0.7-1.7-0.7-3.6 0-2.1 0.8-3.7 0.8-1.5 2.3-2.3 1.4-0.8 3.2-0.8 2 0 3.4 1 1.3 1 1.9 2.9l-1.8 0.4q-0.4-1.5-1.3-2.2-0.9-0.6-2.2-0.6-1.6 0-2.6 0.7-1 0.7-1.5 2-0.4 1.2-0.4 2.6 0 1.7 0.5 2.9 0.5 1.3 1.6 1.9 1 0.7 2.2 0.7 1.5 0 2.6-0.9 1-0.9 1.3-2.5zm3.4 0.3l1.7-0.1q0.1 1 0.5 1.6 0.4 0.7 1.3 1.1 1 0.4 2.1 0.4 1 0 1.8-0.3 0.8-0.3 1.1-0.8 0.4-0.6 0.4-1.2 0-0.6-0.4-1.1-0.3-0.4-1.1-0.8-0.6-0.2-2.4-0.6-1.9-0.5-2.6-0.9-1-0.5-1.4-1.2-0.5-0.7-0.5-1.7 0-1 0.6-1.8 0.6-0.9 1.6-1.4 1.2-0.4 2.5-0.4 1.5 0 2.6 0.4 1.1 0.5 1.8 1.5 0.6 0.9 0.6 2l-1.7 0.2q-0.1-1.3-0.9-1.9-0.8-0.7-2.3-0.7-1.6 0-2.4 0.6-0.7 0.6-0.7 1.4 0 0.7 0.5 1.2 0.5 0.5 2.7 1 2.1 0.4 2.9 0.8 1.2 0.5 1.8 1.4 0.5 0.8 0.5 1.9 0 1-0.6 2-0.6 0.9-1.7 1.5-1.2 0.5-2.6 0.5-1.8 0-3.1-0.6-1.2-0.5-1.9-1.6-0.7-1-0.7-2.4zm16.8 4.3l-5.1-13.3h1.9l3.5 9.7q0.4 1.2 0.7 2.2 0.3-1.1 0.7-2.2l3.6-9.7h1.8l-5.2 13.3zm7.1 0v-1.8h1.9v1.8q0 1.1-0.4 1.7-0.4 0.6-1.2 1l-0.4-0.7q0.5-0.2 0.7-0.7 0.3-0.4 0.3-1.3zm10.2 0v-13.3h9.7v1.6h-7.9v4.1h7.4v1.5h-7.4v4.6h8.2v1.5zm11.1 0l3.5-5-3.2-4.6h2l1.5 2.2q0.4 0.7 0.7 1.1 0.4-0.6 0.7-1.1l1.6-2.2h2l-3.4 4.5 3.6 5.1h-2l-2-3-0.5-0.8-2.5 3.8zm16.7-3.5l1.6 0.2q-0.2 1.7-1.3 2.6-1.1 1-2.7 1-2 0-3.2-1.3-1.2-1.3-1.2-3.8 0-1.5 0.5-2.7 0.5-1.2 1.6-1.8 1.1-0.6 2.3-0.6 1.6 0 2.6 0.8 1 0.8 1.3 2.3l-1.6 0.2q-0.3-0.9-0.8-1.4-0.6-0.5-1.4-0.5-1.3 0-2 0.9-0.8 0.9-0.8 2.8 0 1.9 0.7 2.8 0.8 0.9 2 0.9 0.9 0 1.6-0.6 0.6-0.6 0.8-1.8zm9.7 0.4l1.6 0.2q-0.4 1.5-1.4 2.3-1.1 0.9-2.8 0.9-2.1 0-3.4-1.3-1.2-1.4-1.2-3.7 0-2.5 1.2-3.8 1.3-1.4 3.3-1.4 1.9 0 3.2 1.4 1.2 1.3 1.2 3.7 0 0.1 0 0.4h-7.2q0.1 1.6 0.9 2.5 0.8 0.8 2 0.8 0.9 0 1.5-0.5 0.7-0.4 1.1-1.5zm-5.4-2.6h5.4q-0.1-1.2-0.7-1.9-0.7-0.9-2-0.9-1.1 0-1.9 0.8-0.8 0.7-0.8 2zm9.1 5.7v-13.3h1.6v13.3z"/>
			<path id="Layer" class="s0" d="m30.5 551.4h181.9v42h-181.9z"/>
			<path id="Layer" fill-rule="evenodd" class="s4" d="m65.5 573.4l2.7 0.8q-0.6 2.2-2 3.3-1.4 1-3.6 1-2.6 0-4.4-1.8-1.7-1.8-1.7-5 0-3.3 1.7-5.1 1.8-1.9 4.6-1.9 2.4 0 3.9 1.5 1 0.8 1.4 2.4l-2.6 0.7q-0.3-1.1-1-1.7-0.8-0.6-1.9-0.6-1.4 0-2.4 1.1-0.9 1.1-0.9 3.4 0 2.6 0.9 3.6 0.9 1.1 2.4 1.1 1.1 0 1.8-0.7 0.8-0.6 1.1-2.1zm5 4.9v-13.4h2.5v13.4zm5.2-11v-2.4h2.6v2.4zm0 11v-9.7h2.5v9.7zm10.8-3.1l2.6 0.4q-0.5 1.4-1.6 2.2-1.1 0.7-2.7 0.7-2.5 0-3.7-1.6-0.9-1.4-0.9-3.4 0-2.4 1.2-3.7 1.3-1.4 3.2-1.4 2.2 0 3.4 1.4 1.3 1.5 1.2 4.4h-6.4q0 1.1 0.6 1.8 0.6 0.6 1.5 0.6 0.6 0 1-0.3 0.4-0.3 0.6-1.1zm0.2-2.6q-0.1-1.1-0.6-1.7-0.6-0.5-1.3-0.5-0.9 0-1.4 0.6-0.6 0.6-0.6 1.6zm13.5 5.7h-2.6v-4.9q0-1.6-0.2-2.1-0.1-0.4-0.5-0.7-0.4-0.2-0.9-0.2-0.7 0-1.2 0.3-0.5 0.4-0.7 1-0.2 0.6-0.2 2.2v4.4h-2.6v-9.7h2.4v1.4q1.3-1.6 3.2-1.6 0.8 0 1.6 0.3 0.7 0.3 1 0.8 0.4 0.5 0.5 1.1 0.2 0.6 0.2 1.7zm7-9.7v2h-1.8v3.9q0 1.2 0.1 1.4 0 0.2 0.2 0.4 0.2 0.1 0.4 0.1 0.4 0 1.1-0.3l0.2 2q-0.9 0.4-2 0.4-0.7 0-1.3-0.2-0.5-0.3-0.8-0.6-0.2-0.4-0.3-1-0.1-0.5-0.1-1.8v-4.3h-1.2v-2h1.2v-1.9l2.5-1.5v3.4zm7-3.7h5.4q1.6 0 2.3 0.2 0.8 0.1 1.4 0.5 0.6 0.4 1 1.1 0.4 0.7 0.4 1.6 0 0.9-0.5 1.7-0.5 0.8-1.3 1.2 1.2 0.3 1.8 1.2 0.7 0.9 0.7 2 0 0.9-0.4 1.8-0.4 0.8-1.2 1.4-0.7 0.5-1.8 0.6-0.7 0.1-3.2 0.1h-4.6zm2.7 2.2v3.1h1.8q1.6 0 1.9-0.1 0.7 0 1.1-0.4 0.4-0.4 0.4-1.1 0-0.6-0.3-1-0.3-0.4-1-0.5-0.4 0-2.3 0zm0 5.3v3.6h2.5q1.4 0 1.8-0.1 0.6-0.1 1-0.5 0.4-0.4 0.4-1.2 0-0.6-0.3-1-0.3-0.4-0.9-0.6-0.5-0.2-2.4-0.2zm13.2 5.8h-2.5v-9.6h2.4v1.3q0.6-0.9 1.1-1.2 0.4-0.3 1.1-0.3 0.8 0 1.6 0.4l-0.7 2.3q-0.7-0.5-1.3-0.5-0.5 0-0.9 0.3-0.3 0.3-0.6 1.1-0.2 0.8-0.2 3.3zm4.3-5q0-1.3 0.6-2.5 0.6-1.2 1.8-1.8 1.1-0.6 2.5-0.6 2.2 0 3.6 1.4 1.4 1.4 1.4 3.6 0 2.2-1.4 3.6-1.4 1.5-3.5 1.5-1.4 0-2.6-0.6-1.2-0.6-1.8-1.8-0.6-1.2-0.6-2.8zm2.6 0.1q0 1.5 0.7 2.2 0.6 0.8 1.6 0.8 1 0 1.7-0.8 0.7-0.7 0.7-2.2 0-1.4-0.7-2.2-0.7-0.8-1.7-0.8-1 0-1.6 0.8-0.7 0.8-0.7 2.2zm11.1 4.9l-3-9.7h2.5l1.8 6.3 1.7-6.3h2.4l1.6 6.3 1.9-6.3h2.5l-3.1 9.7h-2.5l-1.6-6.3-1.7 6.3zm11.8-2.8l2.6-0.4q0.2 0.8 0.7 1.1 0.5 0.4 1.4 0.4 1 0 1.5-0.3 0.3-0.3 0.3-0.7 0-0.3-0.2-0.5-0.2-0.2-0.8-0.3-3.1-0.7-4-1.3-1.1-0.8-1.1-2.2 0-1.2 1-2.1 1-0.8 3.1-0.8 1.9 0 2.9 0.6 1 0.7 1.3 1.9l-2.4 0.5q-0.1-0.6-0.6-0.9-0.4-0.3-1.2-0.3-1 0-1.4 0.3-0.3 0.2-0.3 0.5 0 0.3 0.2 0.5 0.4 0.2 2.4 0.7 2.1 0.4 2.9 1.1 0.8 0.7 0.8 1.9 0 1.4-1.1 2.3-1.1 1-3.3 1-2 0-3.2-0.8-1.1-0.8-1.5-2.2zm16.9-0.3l2.6 0.4q-0.5 1.4-1.6 2.1-1 0.8-2.6 0.8-2.6 0-3.8-1.7-0.9-1.3-0.9-3.3 0-2.4 1.2-3.8 1.3-1.3 3.2-1.3 2.2 0 3.4 1.4 1.3 1.4 1.2 4.4h-6.4q0 1.1 0.6 1.7 0.6 0.7 1.5 0.7 0.6 0 1-0.4 0.4-0.3 0.6-1zm0.2-2.6q-0.1-1.1-0.6-1.7-0.6-0.6-1.3-0.6-0.9 0-1.4 0.6-0.6 0.6-0.6 1.7zm7.1 5.7h-2.5v-9.7h2.3v1.4q0.6-1 1.1-1.3 0.5-0.3 1.1-0.3 0.9 0 1.7 0.5l-0.8 2.2q-0.6-0.4-1.2-0.4-0.5 0-0.9 0.3-0.4 0.3-0.6 1-0.2 0.8-0.2 3.3z"/>
			<path id="Layer" fill-rule="evenodd" class="s5" d="m518 593h212v173h-212z"/>
			<path id="Layer" class="s6" d="m518 593h212v173h-212z"/>
			<path id="Layer" fill-rule="evenodd" class="s3" d="m576.5 639.1h95c12.5 0 22.6 15.2 22.6 34 0 18.8-10.1 34-22.6 34h-95c-12.5 0-22.6-15.2-22.6-34 0-18.8 10.1-34 22.6-34z"/>
			<path id="Layer" class="s6" d="m576.5 639.1h95c12.5 0 22.6 15.2 22.6 34 0 18.8-10.1 34-22.6 34h-95c-12.5 0-22.6-15.2-22.6-34 0-18.8 10.1-34 22.6-34z"/>
			<path id="Layer" fill-rule="evenodd" class="s4" d="m572.1 680l5.1-13.3h1.9l5.5 13.3h-2l-1.5-4h-5.6l-1.5 4zm3.9-5.5h4.5l-1.4-3.7q-0.6-1.7-1-2.7-0.2 1.2-0.7 2.5zm10.1 5.5v-13.4h5q1.3 0 2.1 0.2 0.9 0.1 1.6 0.6 0.7 0.5 1.1 1.3 0.4 0.8 0.4 1.8 0 1.7-1.1 2.9-1.1 1.2-3.9 1.2h-3.5v5.4zm1.8-7h3.5q1.7 0 2.4-0.6 0.7-0.7 0.7-1.8 0-0.9-0.4-1.5-0.4-0.6-1.1-0.8-0.5-0.1-1.7-0.1h-3.4zm11 7v-13.3h1.7v13.3zm5.2 0v-1.9h1.8v1.9q0 1-0.3 1.7-0.4 0.6-1.2 1l-0.5-0.7q0.6-0.3 0.8-0.7 0.3-0.5 0.3-1.3zm7.6 0l5.2-13.3h1.9l5.4 13.3h-2l-1.5-4h-5.6l-1.5 4zm3.9-5.5h4.5l-1.4-3.7q-0.6-1.7-0.9-2.7-0.3 1.2-0.8 2.5zm9.9 9.2v-13.4h1.5v1.3q0.5-0.8 1.2-1.1 0.6-0.4 1.6-0.4 1.2 0 2.2 0.6 0.9 0.7 1.4 1.8 0.5 1.2 0.5 2.6 0 1.5-0.6 2.7-0.5 1.1-1.5 1.8-1 0.6-2.1 0.6-0.9 0-1.5-0.3-0.7-0.4-1.1-0.9v4.7zm1.5-8.5q0 1.9 0.8 2.8 0.7 0.9 1.8 0.9 1.1 0 1.9-1 0.7-0.9 0.7-2.8 0-1.9-0.7-2.8-0.8-0.9-1.8-0.9-1.1 0-1.9 1-0.8 0.9-0.8 2.8zm8.9 8.5v-13.4h1.5v1.3q0.5-0.8 1.2-1.1 0.7-0.4 1.6-0.4 1.2 0 2.2 0.6 0.9 0.7 1.4 1.8 0.5 1.2 0.5 2.6 0 1.5-0.5 2.7-0.6 1.1-1.6 1.8-1 0.6-2.1 0.6-0.8 0-1.5-0.3-0.6-0.4-1.1-0.9v4.7zm1.5-8.5q0 1.9 0.8 2.8 0.7 0.9 1.8 0.9 1.1 0 1.9-1 0.8-0.9 0.8-2.8 0-1.9-0.8-2.8-0.7-0.9-1.8-0.9-1.1 0-1.9 1-0.8 0.9-0.8 2.8zm9.3 4.8v-1.9h1.9v1.9q0 1-0.4 1.7-0.3 0.6-1.1 0.9l-0.5-0.7q0.6-0.2 0.8-0.6 0.3-0.5 0.3-1.3z"/>
			<path id="Layer" fill-rule="evenodd" class="s4" d="m656.6 680v-13.3h4.6q1.5 0 2.3 0.2 1.2 0.2 2 0.9 1.1 0.9 1.6 2.3 0.5 1.4 0.5 3.2 0 1.5-0.4 2.7-0.3 1.1-0.9 1.9-0.5 0.8-1.2 1.2-0.6 0.5-1.6 0.7-0.9 0.2-2.1 0.2zm1.7-1.6h2.9q1.3 0 2.1-0.2 0.7-0.2 1.2-0.7 0.6-0.6 0.9-1.7 0.4-1 0.4-2.6 0-2.1-0.7-3.2-0.7-1.1-1.7-1.5-0.7-0.3-2.2-0.3h-2.9zm11.7 1.6v-13.3h5q1.5 0 2.4 0.4 1 0.4 1.5 1.2 0.5 0.9 0.5 1.8 0 0.8-0.5 1.6-0.4 0.8-1.3 1.2 1.2 0.4 1.8 1.2 0.7 0.9 0.7 2 0 1-0.4 1.8-0.4 0.8-1 1.2-0.6 0.5-1.5 0.7-0.8 0.2-2.1 0.2zm1.8-7.7h2.8q1.2 0 1.7-0.2 0.7-0.2 1-0.6 0.4-0.5 0.4-1.2 0-0.7-0.4-1.2-0.3-0.5-0.9-0.7-0.6-0.2-2-0.2h-2.6zm0 6.2h3.3q0.8 0 1.2-0.1 0.6-0.1 1-0.3 0.4-0.3 0.7-0.8 0.2-0.4 0.2-1.1 0-0.7-0.4-1.3-0.3-0.5-1-0.8-0.7-0.2-2-0.2h-3z"/>
			<path id="Layer" class="s0" d="m550.2 551.4h147.6v42h-147.6z"/>
			<path id="Layer" fill-rule="evenodd" class="s4" d="m572.5 578.3v-5.6l-4.9-7.8h3.2l3.1 5.3 3.1-5.3h3.1l-4.9 7.8v5.6zm7-5q0-1.3 0.6-2.4 0.6-1.2 1.8-1.9 1.1-0.6 2.5-0.6 2.2 0 3.6 1.4 1.4 1.5 1.4 3.6 0 2.2-1.4 3.7-1.4 1.4-3.5 1.4-1.4 0-2.6-0.6-1.2-0.6-1.8-1.7-0.6-1.2-0.6-2.9zm2.6 0.2q0 1.4 0.7 2.2 0.6 0.7 1.6 0.7 1 0 1.7-0.7 0.7-0.8 0.7-2.3 0-1.4-0.7-2.1-0.7-0.8-1.7-0.8-1 0-1.6 0.8-0.7 0.7-0.7 2.2zm15.7 4.8v-1.5q-0.5 0.8-1.4 1.3-0.8 0.4-1.8 0.4-1 0-1.7-0.4-0.8-0.4-1.2-1.2-0.3-0.8-0.3-2.1v-6.2h2.6v4.5q0 2 0.1 2.5 0.1 0.4 0.5 0.7 0.4 0.3 1 0.3 0.6 0 1.1-0.4 0.5-0.4 0.7-0.9 0.2-0.5 0.2-2.6v-4.1h2.6v9.7zm7.5 0h-2.6v-9.7h2.4v1.4q0.6-1 1.1-1.3 0.5-0.3 1.1-0.3 0.9 0 1.7 0.5l-0.8 2.2q-0.7-0.4-1.2-0.4-0.6 0-0.9 0.3-0.4 0.3-0.6 1.1-0.2 0.7-0.2 3.2zm9.3-4.3l2.6-0.3q0.3 1.3 1 2 0.7 0.6 1.9 0.6 1.3 0 2-0.6 0.7-0.5 0.7-1.3 0-0.4-0.3-0.8-0.3-0.3-1-0.6-0.5-0.1-2.2-0.5-2.1-0.6-3-1.4-1.2-1.1-1.2-2.6 0-1.1 0.6-2 0.5-0.8 1.6-1.3 1.1-0.5 2.7-0.5 2.5 0 3.7 1.1 1.3 1.1 1.4 3l-2.7 0.1q-0.2-1-0.8-1.5-0.5-0.4-1.7-0.4-1.1 0-1.8 0.4-0.4 0.4-0.4 0.9 0 0.5 0.4 0.8 0.5 0.4 2.4 0.9 2 0.4 2.9 0.9 1 0.5 1.5 1.4 0.6 0.9 0.6 2.1 0 1.2-0.7 2.2-0.6 1-1.8 1.5-1.2 0.4-2.9 0.4-2.5 0-3.9-1.1-1.3-1.2-1.6-3.4zm11.9-5.4h2.7l2.3 6.9 2.3-6.9h2.6l-3.4 9.4-0.6 1.6q-0.3 0.9-0.6 1.3-0.3 0.5-0.7 0.7-0.4 0.3-1 0.5-0.6 0.1-1.3 0.1-0.7 0-1.5-0.1l-0.2-2q0.6 0.1 1.1 0.1 0.9 0 1.3-0.5 0.4-0.5 0.7-1.4zm10.7 7l2.5-0.4q0.2 0.7 0.7 1.1 0.5 0.4 1.4 0.4 1 0 1.5-0.4 0.3-0.2 0.3-0.7 0-0.3-0.2-0.4-0.1-0.2-0.8-0.4-3.1-0.7-3.9-1.2-1.2-0.8-1.2-2.2 0-1.3 1-2.1 1-0.9 3.1-0.9 2 0 2.9 0.7 1 0.6 1.4 1.9l-2.4 0.4q-0.2-0.5-0.6-0.8-0.5-0.3-1.3-0.3-1 0-1.4 0.3-0.3 0.2-0.3 0.5 0 0.2 0.3 0.4 0.3 0.3 2.3 0.8 2.1 0.4 2.9 1.1 0.8 0.7 0.8 1.9 0 1.3-1.1 2.3-1.1 0.9-3.3 0.9-2 0-3.1-0.8-1.2-0.8-1.5-2.1zm15.7-7v2.1h-1.8v3.9q0 1.2 0.1 1.4 0 0.2 0.2 0.3 0.2 0.1 0.4 0.1 0.4 0 1.1-0.2l0.2 2q-0.9 0.3-2 0.3-0.7 0-1.3-0.2-0.5-0.2-0.8-0.6-0.3-0.4-0.3-1-0.1-0.4-0.1-1.8v-4.2h-1.2v-2.1h1.2v-1.9l2.5-1.5v3.4zm7.4 6.6l2.6 0.5q-0.5 1.4-1.6 2.1-1.1 0.7-2.7 0.7-2.5 0-3.7-1.6-0.9-1.3-0.9-3.3 0-2.5 1.2-3.8 1.3-1.4 3.2-1.4 2.2 0 3.4 1.4 1.3 1.5 1.2 4.4h-6.4q0 1.2 0.6 1.8 0.6 0.6 1.5 0.6 0.6 0 1-0.3 0.4-0.3 0.6-1.1zm0.2-2.6q-0.1-1.1-0.6-1.6-0.6-0.6-1.3-0.6-0.9 0-1.4 0.6-0.6 0.6-0.6 1.6zm4.5-4h2.3v1.4q1.3-1.6 3-1.6 1 0 1.6 0.4 0.7 0.4 1.2 1.2 0.6-0.8 1.3-1.2 0.8-0.4 1.6-0.4 1.1 0 1.8 0.5 0.8 0.4 1.1 1.2 0.3 0.7 0.3 2v6.2h-2.6v-5.5q0-1.5-0.2-1.9-0.4-0.5-1.1-0.5-0.6 0-1 0.3-0.5 0.3-0.7 1-0.2 0.6-0.2 2v4.6h-2.6v-5.3q0-1.4-0.1-1.8-0.2-0.4-0.4-0.6-0.3-0.2-0.8-0.2-0.6 0-1.1 0.3-0.5 0.3-0.7 0.9-0.2 0.6-0.2 2v4.7h-2.5z"/>
			<path id="Layer" fill-rule="evenodd" class="s7" d="m274.2 593h182v353.6h-182z"/>
			<path id="Layer" class="s8" d="m274.2 593h182v353.6h-182z"/>
			<path id="Layer" fill-rule="evenodd" class="s3" d="m305.9 633.3h118.6v79h-118.6z"/>
			<path id="Layer" class="s8" d="m305.9 633.3h118.6v79h-118.6z"/>
			<path id="Layer" fill-rule="evenodd" class="s4" d="m333.9 675.5l1.7-0.2q0.1 1 0.5 1.7 0.4 0.6 1.4 1 0.9 0.4 2 0.4 1 0 1.8-0.3 0.8-0.3 1.2-0.8 0.3-0.6 0.3-1.2 0-0.6-0.3-1.1-0.4-0.4-1.2-0.8-0.6-0.2-2.4-0.6-1.9-0.5-2.6-0.9-1-0.5-1.4-1.2-0.5-0.7-0.5-1.7 0-1 0.6-1.8 0.6-0.9 1.7-1.4 1.1-0.4 2.4-0.4 1.5 0 2.6 0.5 1.2 0.4 1.8 1.4 0.6 0.9 0.6 2.1l-1.7 0.1q-0.1-1.3-0.9-1.9-0.8-0.7-2.3-0.7-1.6 0-2.4 0.6-0.7 0.6-0.7 1.4 0 0.8 0.5 1.2 0.5 0.5 2.7 1 2.2 0.5 2.9 0.8 1.2 0.5 1.8 1.4 0.5 0.8 0.5 1.9 0 1-0.6 2-0.6 0.9-1.7 1.5-1.2 0.5-2.6 0.5-1.8 0-3.1-0.5-1.2-0.6-1.9-1.6-0.7-1.1-0.7-2.4zm19.5 1.1l1.7 0.2q-0.5 1.5-1.5 2.4-1.1 0.8-2.8 0.8-2.1 0-3.4-1.3-1.2-1.3-1.2-3.7 0-2.5 1.2-3.8 1.3-1.3 3.3-1.3 1.9 0 3.2 1.3 1.2 1.3 1.2 3.7 0 0.1 0 0.4h-7.2q0.1 1.6 0.9 2.5 0.8 0.8 2 0.8 0.9 0 1.5-0.4 0.7-0.5 1.1-1.6zm-5.4-2.6h5.4q-0.1-1.2-0.6-1.8-0.8-1-2.1-1-1.1 0-1.9 0.8-0.7 0.7-0.8 2zm9.1 5.7v-9.6h1.5v1.4q0.5-1 1-1.3 0.5-0.3 1.1-0.3 0.8 0 1.6 0.5l-0.5 1.5q-0.6-0.4-1.2-0.4-0.6 0-1 0.4-0.4 0.3-0.6 0.9-0.3 0.8-0.3 1.9v5zm8.9 0l-3.6-9.6h1.7l2.1 5.8q0.3 0.9 0.6 1.9 0.2-0.8 0.6-1.8l2.1-5.9h1.7l-3.6 9.6zm13.2-3.1l1.7 0.2q-0.4 1.5-1.5 2.4-1 0.8-2.7 0.8-2.2 0-3.4-1.3-1.2-1.3-1.2-3.7 0-2.5 1.2-3.8 1.3-1.3 3.3-1.3 1.9 0 3.1 1.3 1.3 1.3 1.3 3.7 0 0.1 0 0.4h-7.2q0 1.6 0.9 2.5 0.8 0.8 2 0.8 0.9 0 1.5-0.4 0.7-0.5 1-1.6zm-5.4-2.6h5.5q-0.2-1.2-0.7-1.8-0.8-1-2-1-1.1 0-1.9 0.8-0.8 0.7-0.9 2zm9.2 5.7v-9.6h1.4v1.4q0.6-1 1.1-1.3 0.5-0.3 1-0.3 0.9 0 1.7 0.5l-0.5 1.5q-0.6-0.4-1.2-0.4-0.6 0-1 0.4-0.4 0.3-0.6 0.9-0.3 0.8-0.3 1.9v5zm5.6-2.8l1.6-0.3q0.1 1 0.7 1.5 0.7 0.5 1.8 0.5 1.1 0 1.7-0.4 0.5-0.5 0.5-1.1 0-0.6-0.5-0.9-0.3-0.2-1.6-0.5-1.9-0.5-2.6-0.8-0.6-0.4-1-0.9-0.4-0.6-0.4-1.4 0-0.6 0.3-1.1 0.3-0.6 0.8-1 0.4-0.3 1.1-0.4 0.6-0.2 1.4-0.2 1.1 0 2 0.3 0.9 0.3 1.3 0.9 0.4 0.5 0.5 1.5l-1.6 0.2q-0.1-0.8-0.6-1.2-0.5-0.4-1.5-0.4-1.1 0-1.6 0.4-0.5 0.4-0.5 0.9 0 0.3 0.2 0.5 0.2 0.3 0.7 0.5 0.2 0.1 1.4 0.4 1.7 0.4 2.4 0.7 0.7 0.3 1.1 0.9 0.4 0.6 0.4 1.4 0 0.8-0.5 1.6-0.5 0.7-1.4 1.1-0.9 0.4-2 0.4-1.9 0-2.9-0.8-1-0.8-1.2-2.3z"/>
			<path id="Layer" fill-rule="evenodd" class="s3" d="m303.7 801.3c0 8.1 27.5 14.6 61.5 14.6 34 0 61.5-6.5 61.5-14.6v87.5c0 8-27.5 14.6-61.5 14.6-34 0-61.5-6.6-61.5-14.6z"/>
			<path id="Layer" fill-rule="evenodd" class="s3" d="m303.7 801.3c0-8 27.5-14.5 61.5-14.5 34 0 61.5 6.5 61.5 14.5 0 8.1-27.5 14.6-61.5 14.6-34 0-61.5-6.5-61.5-14.6z"/>
			<path id="Layer" class="s0" d="m426.7 801.3c0 8.1-27.5 14.6-61.5 14.6-34 0-61.5-6.5-61.5-14.6 0-8 27.5-14.5 61.5-14.5 34 0 61.5 6.5 61.5 14.5v87.5c0 8-27.5 14.6-61.5 14.6-34 0-61.5-6.6-61.5-14.6v-87.5"/>
			<path id="Layer" class="s8" d="m426.7 801.3c0 8.1-27.5 14.6-61.5 14.6-34 0-61.5-6.5-61.5-14.6 0-8 27.5-14.5 61.5-14.5 34 0 61.5 6.5 61.5 14.5v87.5c0 8-27.5 14.6-61.5 14.6-34 0-61.5-6.6-61.5-14.6v-87.5"/>
			<path id="Layer" fill-rule="evenodd" class="s4" d="m326.7 848.3v-13.4h4.6q1.6 0 2.4 0.2 1.1 0.3 1.9 1 1.1 0.9 1.6 2.2 0.6 1.4 0.6 3.2 0 1.5-0.4 2.7-0.4 1.2-0.9 2-0.6 0.7-1.2 1.2-0.7 0.4-1.6 0.7-1 0.2-2.2 0.2zm1.8-1.6h2.9q1.3 0 2-0.2 0.8-0.3 1.2-0.7 0.6-0.7 1-1.7 0.4-1.1 0.4-2.6 0-2.1-0.7-3.2-0.7-1.2-1.7-1.5-0.7-0.3-2.3-0.3h-2.8zm17.8 0.4q-0.9 0.7-1.7 1.1-0.9 0.3-1.8 0.3-1.6 0-2.5-0.8-0.9-0.8-0.9-2 0-0.7 0.4-1.3 0.3-0.6 0.8-0.9 0.5-0.4 1.2-0.6 0.5-0.1 1.5-0.2 1.9-0.2 2.9-0.6 0-0.3 0-0.4 0-1-0.5-1.4-0.6-0.6-1.9-0.6-1.1 0-1.7 0.4-0.5 0.4-0.8 1.5l-1.6-0.3q0.2-1 0.7-1.6 0.5-0.6 1.5-1 0.9-0.3 2.2-0.3 1.2 0 2 0.3 0.8 0.3 1.1 0.7 0.4 0.4 0.6 1.1 0 0.4 0 1.5v2.2q0 2.3 0.1 2.9 0.2 0.6 0.4 1.2h-1.7q-0.2-0.5-0.3-1.2zm-0.1-3.7q-0.9 0.4-2.7 0.6-1 0.2-1.4 0.4-0.5 0.1-0.7 0.5-0.2 0.3-0.2 0.8 0 0.6 0.5 1.1 0.5 0.4 1.4 0.4 1 0 1.7-0.4 0.8-0.4 1.1-1.1 0.3-0.6 0.3-1.7zm7.8 3.4l0.2 1.5q-0.7 0.1-1.2 0.1-0.9 0-1.4-0.3-0.5-0.3-0.7-0.7-0.2-0.5-0.2-2v-5.5h-1.2v-1.3h1.2v-2.4l1.6-1v3.4h1.7v1.3h-1.7v5.6q0 0.7 0.1 0.9 0.1 0.2 0.3 0.4 0.2 0.1 0.5 0.1 0.3 0 0.8-0.1zm7.9 0.3q-0.9 0.8-1.8 1.1-0.8 0.3-1.8 0.3-1.6 0-2.4-0.8-0.9-0.8-0.9-2 0-0.7 0.3-1.3 0.4-0.6 0.9-0.9 0.5-0.4 1.2-0.6 0.4-0.1 1.4-0.2 2-0.2 2.9-0.6 0-0.3 0-0.4 0-1-0.4-1.4-0.6-0.6-1.9-0.6-1.2 0-1.7 0.5-0.5 0.4-0.8 1.4l-1.6-0.2q0.2-1.1 0.7-1.7 0.5-0.6 1.5-1 0.9-0.3 2.1-0.3 1.3 0 2.1 0.3 0.7 0.3 1.1 0.7 0.4 0.5 0.5 1.1 0.1 0.4 0.1 1.5v2.2q0 2.3 0.1 2.9 0.1 0.6 0.4 1.2h-1.7q-0.3-0.5-0.3-1.2zm-0.2-3.7q-0.9 0.4-2.6 0.6-1.1 0.2-1.5 0.4-0.4 0.2-0.6 0.5-0.3 0.3-0.3 0.8 0 0.6 0.5 1.1 0.5 0.4 1.5 0.4 0.9 0 1.7-0.4 0.7-0.4 1.1-1.1 0.2-0.6 0.2-1.7zm5.7 4.9h-1.5v-13.4h1.7v4.8q1-1.3 2.6-1.3 0.9 0 1.7 0.4 0.8 0.3 1.3 1 0.5 0.6 0.8 1.5 0.3 1 0.3 2 0 2.5-1.2 3.8-1.2 1.4-3 1.4-1.7 0-2.7-1.4zm0-4.9q0 1.7 0.5 2.5 0.8 1.2 2.1 1.2 1.1 0 1.9-0.9 0.7-0.9 0.7-2.8 0-1.9-0.7-2.8-0.8-0.9-1.8-0.9-1.1 0-1.9 1-0.8 0.9-0.8 2.7zm15.2 3.7q-0.9 0.7-1.7 1.1-0.9 0.3-1.8 0.3-1.6 0-2.5-0.8-0.8-0.8-0.8-2 0-0.7 0.3-1.3 0.3-0.6 0.8-0.9 0.6-0.4 1.2-0.6 0.5-0.1 1.5-0.2 1.9-0.2 2.9-0.6 0-0.3 0-0.4 0-1-0.5-1.4-0.6-0.6-1.8-0.6-1.2 0-1.7 0.4-0.6 0.4-0.9 1.5l-1.6-0.3q0.3-1 0.8-1.6 0.5-0.6 1.4-1 1-0.3 2.2-0.3 1.2 0 2 0.3 0.8 0.3 1.1 0.7 0.4 0.4 0.6 1.1 0 0.4 0 1.5v2.2q0 2.3 0.2 2.9 0.1 0.6 0.4 1.2h-1.7q-0.3-0.5-0.4-1.2zm-0.1-3.7q-0.9 0.4-2.7 0.6-1 0.2-1.4 0.4-0.4 0.1-0.7 0.5-0.2 0.3-0.2 0.8 0 0.6 0.5 1.1 0.5 0.4 1.5 0.4 0.9 0 1.6-0.4 0.8-0.4 1.1-1.1 0.3-0.6 0.3-1.7zm3.5 2l1.7-0.3q0.1 1 0.7 1.5 0.6 0.6 1.8 0.6 1.1 0 1.6-0.5 0.6-0.5 0.6-1.1 0-0.5-0.5-0.9-0.3-0.2-1.7-0.5-1.8-0.5-2.5-0.8-0.7-0.3-1-0.9-0.4-0.6-0.4-1.3 0-0.7 0.3-1.2 0.3-0.6 0.8-0.9 0.4-0.3 1-0.5 0.7-0.2 1.5-0.2 1.1 0 2 0.3 0.8 0.3 1.2 0.9 0.4 0.6 0.6 1.5l-1.6 0.2q-0.1-0.7-0.6-1.1-0.6-0.5-1.5-0.5-1.2 0-1.6 0.4-0.5 0.4-0.5 0.9 0 0.3 0.2 0.6 0.2 0.2 0.6 0.4 0.3 0.1 1.5 0.4 1.7 0.5 2.4 0.8 0.7 0.3 1.1 0.8 0.4 0.6 0.4 1.4 0 0.9-0.5 1.6-0.5 0.7-1.4 1.1-0.9 0.4-2 0.4-1.9 0-2.9-0.8-1-0.8-1.3-2.3zm16.6-0.2l1.7 0.2q-0.4 1.5-1.5 2.3-1 0.8-2.7 0.8-2.1 0-3.4-1.3-1.2-1.3-1.2-3.7 0-2.4 1.2-3.8 1.3-1.3 3.3-1.3 1.9 0 3.1 1.3 1.3 1.3 1.3 3.7 0 0.2 0 0.5h-7.2q0.1 1.5 0.9 2.4 0.8 0.9 2 0.9 0.9 0 1.5-0.5 0.7-0.5 1-1.5zm-5.3-2.7h5.4q-0.2-1.2-0.7-1.8-0.7-1-2-1-1.1 0-1.9 0.8-0.8 0.7-0.8 2z"/>
			<path id="Layer" fill-rule="evenodd" class="s4" d="m328.4 874.2q-1.3-1.7-2.3-4-0.9-2.3-0.9-4.8 0-2.1 0.7-4.1 0.8-2.3 2.5-4.6h1.2q-1.1 1.9-1.4 2.7-0.6 1.2-0.9 2.6-0.4 1.7-0.4 3.4 0 4.4 2.7 8.8zm1.8-3.9l5.2-13.4h1.9l5.4 13.4h-2l-1.5-4.1h-5.6l-1.5 4.1zm3.9-5.5h4.5l-1.4-3.7q-0.6-1.7-0.9-2.8-0.3 1.3-0.8 2.6zm11.7 5.4l-3.5-13.3h1.8l2 8.8q0.4 1.3 0.6 2.7 0.5-2.2 0.6-2.5l2.5-9h2.2l1.9 6.8q0.7 2.5 1 4.7 0.3-1.3 0.7-2.9l2.1-8.6h1.8l-3.7 13.3h-1.7l-2.8-10.1q-0.4-1.3-0.4-1.6-0.2 0.9-0.4 1.6l-2.9 10.1zm14.7-4.2l1.7-0.2q0.1 1 0.5 1.7 0.5 0.6 1.4 1 0.9 0.4 2 0.4 1 0 1.8-0.3 0.8-0.3 1.2-0.8 0.3-0.6 0.3-1.2 0-0.6-0.3-1.1-0.4-0.4-1.2-0.8-0.6-0.2-2.4-0.6-1.8-0.5-2.6-0.9-0.9-0.5-1.4-1.2-0.5-0.7-0.5-1.7 0-1 0.6-1.8 0.6-0.9 1.7-1.4 1.1-0.4 2.4-0.4 1.5 0 2.6 0.5 1.2 0.4 1.8 1.4 0.6 0.9 0.6 2.1l-1.6 0.1q-0.2-1.3-1-1.9-0.8-0.7-2.3-0.7-1.6 0-2.3 0.6-0.8 0.6-0.8 1.4 0 0.8 0.6 1.2 0.5 0.5 2.6 1 2.2 0.5 3 0.8 1.1 0.5 1.7 1.4 0.6 0.8 0.6 1.9 0 1-0.7 2-0.6 0.9-1.7 1.5-1.1 0.5-2.6 0.5-1.8 0-3-0.5-1.3-0.6-2-1.6-0.6-1.1-0.7-2.4zm17.7 0l1.6-0.2q0.1 1 0.6 1.7 0.4 0.6 1.3 1 0.9 0.4 2.1 0.4 1 0 1.7-0.3 0.8-0.3 1.2-0.8 0.4-0.6 0.4-1.2 0-0.6-0.4-1.1-0.4-0.4-1.2-0.8-0.5-0.2-2.4-0.6-1.8-0.5-2.5-0.9-1-0.5-1.5-1.2-0.4-0.7-0.4-1.7 0-1 0.5-1.8 0.6-0.9 1.7-1.4 1.1-0.4 2.5-0.4 1.4 0 2.6 0.5 1.1 0.4 1.7 1.4 0.6 0.9 0.7 2.1l-1.7 0.1q-0.2-1.3-1-1.9-0.7-0.7-2.3-0.7-1.6 0-2.3 0.6-0.7 0.6-0.7 1.4 0 0.8 0.5 1.2 0.5 0.5 2.6 1 2.2 0.5 3 0.8 1.2 0.5 1.7 1.4 0.6 0.8 0.6 1.9 0 1-0.6 2-0.6 0.9-1.8 1.5-1.1 0.5-2.6 0.5-1.8 0-3-0.5-1.2-0.6-1.9-1.6-0.7-1.1-0.7-2.4zm12.3 0.7l1.7-0.2q0.3 1.4 0.9 2 0.7 0.6 1.7 0.6 1.1 0 1.9-0.8 0.8-0.8 0.8-2 0-1.1-0.7-1.8-0.7-0.8-1.9-0.8-0.4 0-1.1 0.2l0.2-1.4q0.1 0 0.2 0 1.1 0 1.9-0.5 0.8-0.6 0.8-1.7 0-0.9-0.6-1.5-0.6-0.6-1.5-0.6-1 0-1.6 0.6-0.7 0.6-0.9 1.8l-1.6-0.3q0.3-1.6 1.4-2.6 1-0.9 2.6-0.9 1.1 0 2 0.5 0.9 0.5 1.4 1.3 0.5 0.8 0.5 1.7 0 0.9-0.4 1.6-0.5 0.7-1.4 1.1 1.2 0.3 1.8 1.2 0.7 0.8 0.7 2.1 0 1.7-1.3 3-1.3 1.2-3.2 1.2-1.8 0-2.9-1.1-1.2-1-1.4-2.7zm11.9 7.5h-1.1q2.7-4.4 2.7-8.8 0-1.7-0.4-3.4-0.3-1.3-0.9-2.6-0.3-0.8-1.4-2.7h1.1q1.7 2.3 2.6 4.6 0.7 1.9 0.7 4.1 0 2.5-1 4.8-0.9 2.3-2.3 4z"/>
			<path id="Layer" class="s0" d="m313.6 551.4h103.2v42h-103.2z"/>
			<path id="Layer" fill-rule="evenodd" class="s4" d="m339.3 573.4l2.7 0.8q-0.6 2.2-2 3.3-1.4 1-3.6 1-2.7 0-4.4-1.8-1.7-1.8-1.7-5 0-3.3 1.7-5.1 1.8-1.9 4.6-1.9 2.4 0 3.9 1.5 1 0.8 1.4 2.4l-2.7 0.7q-0.2-1.1-0.9-1.7-0.8-0.6-1.9-0.6-1.4 0-2.4 1.1-0.9 1.1-0.9 3.4 0 2.6 0.9 3.6 0.9 1.1 2.4 1.1 1.1 0 1.8-0.7 0.8-0.6 1.1-2.1zm4.3 0.6l2.6-0.3q0.2 1.3 1 1.9 0.7 0.7 1.9 0.7 1.3 0 2-0.6 0.7-0.5 0.7-1.3 0-0.5-0.3-0.8-0.3-0.3-1-0.6-0.5-0.1-2.2-0.5-2.1-0.6-3-1.4-1.2-1.1-1.2-2.7 0-1 0.5-1.9 0.6-0.9 1.7-1.3 1.1-0.5 2.6-0.5 2.6 0 3.8 1.1 1.3 1.1 1.4 3l-2.7 0.1q-0.2-1.1-0.8-1.5-0.6-0.4-1.7-0.4-1.2 0-1.8 0.4-0.5 0.3-0.5 0.9 0 0.4 0.4 0.8 0.5 0.4 2.5 0.9 2 0.4 2.9 0.9 1 0.5 1.5 1.4 0.5 0.8 0.5 2.1 0 1.2-0.6 2.2-0.6 1-1.8 1.4-1.2 0.5-2.9 0.5-2.5 0-3.9-1.1-1.4-1.2-1.6-3.4zm16.5 4.3l-4.8-13.4h3l3.3 9.9 3.3-9.9h2.9l-4.8 13.4zm8.9 0v-13.4h2.6v4.9q1.1-1.4 2.8-1.4 1.7 0 2.9 1.3 1.1 1.3 1.1 3.7 0 2.4-1.1 3.8-1.2 1.3-2.9 1.3-0.8 0-1.6-0.4-0.8-0.4-1.4-1.2v1.4zm2.5-5q0 1.5 0.5 2.2 0.7 1 1.8 1 0.8 0 1.4-0.7 0.6-0.8 0.6-2.3 0-1.7-0.6-2.4-0.6-0.7-1.5-0.7-1 0-1.6 0.7-0.6 0.7-0.6 2.2zm8.4 0q0-1.3 0.6-2.4 0.6-1.2 1.8-1.9 1.2-0.6 2.6-0.6 2.2 0 3.6 1.4 1.4 1.5 1.4 3.6 0 2.2-1.4 3.7-1.5 1.4-3.6 1.4-1.3 0-2.6-0.6-1.2-0.6-1.8-1.7-0.6-1.2-0.6-2.9zm2.6 0.2q0 1.4 0.7 2.2 0.7 0.7 1.7 0.7 1 0 1.6-0.7 0.7-0.8 0.7-2.3 0-1.4-0.7-2.1-0.6-0.8-1.6-0.8-1 0-1.7 0.8-0.7 0.7-0.7 2.2zm8.1 4.8l3.5-5-3.3-4.7h3.1l1.7 2.7 1.8-2.7h3l-3.2 4.6 3.5 5.1h-3.1l-2-3-2 3z"/>
			<path id="Layer" class="s0" d="m111.7 711.9v258h512.3v-262.9"/>
			<path id="Layer" class="s13" d="m111.7 711.9v258h512.3v-259.4"/>
			<path id="Layer" fill-rule="evenodd" class="s14" d="m624 710.5l1.1 1.1-1.1-3.1-1.1 3.1z"/>
			<path id="Layer" class="s0" d="m329 969.9h93.5v42h-93.5z"/>
			<path id="Layer" fill-rule="evenodd" class="s4" d="m341.9 990.3q0-3.3 1.8-5.2 1.8-1.9 4.6-1.9 1.9 0 3.3 0.9 1.5 0.9 2.3 2.4 0.8 1.6 0.8 3.6 0 2.1-0.8 3.7-0.9 1.6-2.4 2.4-1.5 0.8-3.2 0.8-1.9 0-3.4-0.9-1.5-0.9-2.2-2.5-0.8-1.6-0.8-3.3zm1.8 0q0 2.4 1.3 3.8 1.3 1.4 3.3 1.4 2 0 3.3-1.4 1.3-1.4 1.3-4 0-1.6-0.6-2.8-0.5-1.3-1.6-1.9-1.1-0.7-2.4-0.7-1.9 0-3.2 1.3-1.4 1.3-1.4 4.3zm13.1 10.2v-13.4h1.4v1.3q0.6-0.8 1.2-1.1 0.7-0.4 1.7-0.4 1.2 0 2.1 0.6 1 0.7 1.5 1.8 0.4 1.2 0.4 2.6 0 1.5-0.5 2.6-0.5 1.2-1.5 1.9-1 0.6-2.2 0.6-0.8 0-1.4-0.3-0.7-0.4-1.1-0.9v4.7zm1.5-8.5q0 1.9 0.7 2.8 0.8 0.9 1.9 0.9 1.1 0 1.8-1 0.8-0.9 0.8-2.8 0-1.9-0.7-2.8-0.8-0.9-1.9-0.9-1 0-1.8 1-0.8 0.9-0.8 2.8zm12.5 3.3l0.2 1.5q-0.7 0.1-1.2 0.1-0.9 0-1.4-0.3-0.5-0.3-0.7-0.7-0.2-0.5-0.2-1.9v-5.6h-1.2v-1.3h1.2v-2.4l1.6-1v3.4h1.7v1.3h-1.7v5.6q0 0.7 0.1 0.9 0.1 0.2 0.3 0.4 0.2 0.1 0.5 0.1 0.3 0 0.8-0.1zm1.6-10v-1.9h1.6v1.9zm0 11.5v-9.7h1.6v9.7zm3.6-4.9q0-2.7 1.5-3.9 1.2-1.1 3-1.1 2 0 3.3 1.3 1.2 1.3 1.2 3.6 0 1.9-0.5 2.9-0.6 1.1-1.7 1.7-1 0.6-2.3 0.6-2 0-3.3-1.3-1.2-1.3-1.2-3.8zm1.7 0q0 1.9 0.8 2.8 0.8 1 2 1 1.2 0 2-1 0.8-0.9 0.8-2.8 0-1.8-0.8-2.7-0.8-1-2-1-1.2 0-2 1-0.8 0.9-0.8 2.7zm9.3 4.9v-9.7h1.4v1.4q1.1-1.6 3.1-1.6 0.9 0 1.6 0.3 0.8 0.3 1.1 0.8 0.4 0.5 0.5 1.2 0.1 0.5 0.1 1.6v6h-1.6v-5.9q0-1-0.2-1.5-0.2-0.5-0.7-0.8-0.5-0.3-1.1-0.3-1.1 0-1.8 0.7-0.8 0.6-0.8 2.5v5.3zm16.7-1.2q-0.9 0.8-1.8 1.1-0.8 0.3-1.8 0.3-1.6 0-2.4-0.8-0.9-0.8-0.9-2 0-0.7 0.3-1.3 0.4-0.6 0.9-0.9 0.5-0.4 1.2-0.5 0.4-0.2 1.4-0.3 2-0.2 2.9-0.6 0.1-0.3 0.1-0.4 0-1-0.5-1.4-0.6-0.6-1.9-0.6-1.1 0-1.7 0.5-0.5 0.4-0.8 1.4l-1.6-0.2q0.2-1.1 0.7-1.7 0.5-0.6 1.5-1 0.9-0.3 2.2-0.3 1.2 0 2 0.3 0.8 0.3 1.1 0.7 0.4 0.5 0.5 1.1 0.1 0.5 0.1 1.5v2.2q0 2.3 0.1 2.9 0.1 0.6 0.4 1.2h-1.7q-0.2-0.5-0.3-1.2zm-0.2-3.7q-0.8 0.4-2.6 0.6-1 0.2-1.5 0.4-0.4 0.2-0.6 0.5-0.2 0.3-0.2 0.8 0 0.6 0.5 1.1 0.5 0.4 1.4 0.4 1 0 1.7-0.4 0.7-0.4 1.1-1.1 0.2-0.6 0.2-1.7zm4.2 4.9v-13.4h1.6v13.4z"/>
		</g>
	</g>
</svg>